<svg width="140" height="134" viewBox="0 0 140 134" fill="none" xmlns="http://www.w3.org/2000/svg">
<g clip-path="url(#clip0_106_69)">
<path d="M26.9284 70.4667C27.3583 70.0397 27.9408 69.8023 28.5472 69.8023H41.2323V58.7204C41.2323 51.59 47.0809 45.7933 54.2662 45.7933H94.1878V13.677C94.1878 9.05826 90.3967 5.29646 85.733 5.29646H13.7839C9.12114 5.29646 5.33068 9.05822 5.33068 13.677V61.4218C5.33068 66.0399 9.12115 69.8023 13.7839 69.8023H14.5732C15.8358 69.8023 16.8635 70.8174 16.8635 72.0748V80.4475L26.9284 70.4667ZM26.9284 70.4667L27.1045 70.6443ZM13.6973 88.0335C13.9796 88.1487 14.2772 88.2067 14.5725 88.2067C15.167 88.205 15.7536 87.9763 16.1921 87.5406L29.4951 74.3473H41.2323V106.465C41.2323 113.595 47.081 119.391 54.2662 119.391H112.134L125.437 132.584C125.876 133.019 126.46 133.25 127.056 133.25C127.351 133.25 127.649 133.192 127.93 133.077C128.786 132.725 129.345 131.897 129.345 130.976V118.961C135.042 117.557 139.25 112.425 139.25 106.465V58.7204C139.25 51.59 133.402 45.7933 126.216 45.7933H98.767V13.677C98.767 6.54675 92.9191 0.75 85.733 0.75H13.7839C6.59866 0.75 0.75 6.54674 0.75 13.677V61.4218C0.75 68.0485 5.80221 73.5231 12.2828 74.2633V85.9327C12.2828 86.8541 12.8419 87.682 13.6973 88.0335Z" fill="#FC3E60"/>
<path d="M26.9284 70.4667C27.3583 70.0397 27.9408 69.8023 28.5472 69.8023H41.2323V58.7204C41.2323 51.59 47.0809 45.7933 54.2662 45.7933H94.1878V13.677C94.1878 9.05826 90.3967 5.29646 85.733 5.29646H13.7839C9.12114 5.29646 5.33068 9.05822 5.33068 13.677V61.4218C5.33068 66.0399 9.12115 69.8023 13.7839 69.8023H14.5732C15.8358 69.8023 16.8635 70.8174 16.8635 72.0748V80.4475L26.9284 70.4667ZM26.9284 70.4667L27.1045 70.6443M13.6973 88.0335C13.9796 88.1487 14.2772 88.2067 14.5725 88.2067C15.167 88.205 15.7536 87.9763 16.1921 87.5406L29.4951 74.3473H41.2323V106.465C41.2323 113.595 47.081 119.391 54.2662 119.391H112.134L125.437 132.584C125.876 133.019 126.46 133.25 127.056 133.25C127.351 133.25 127.649 133.192 127.93 133.077C128.786 132.725 129.345 131.897 129.345 130.976V118.961C135.042 117.557 139.25 112.425 139.25 106.465V58.7204C139.25 51.59 133.402 45.7933 126.216 45.7933H98.767V13.677C98.767 6.54675 92.9191 0.75 85.733 0.75H13.7839C6.59866 0.75 0.75 6.54674 0.75 13.677V61.4218C0.75 68.0485 5.80221 73.5231 12.2828 74.2633V85.9327C12.2828 86.8541 12.8419 87.682 13.6973 88.0335Z" stroke="#FC3E60" stroke-width="0.5"/>
<path d="M112.994 70.0376H66.2867C65.1423 70.0376 64.2109 70.959 64.2109 72.0981C64.2109 73.2373 65.1422 74.1587 66.2867 74.1587H112.994C114.138 74.1587 115.07 73.2374 115.07 72.0981C115.07 70.9589 114.138 70.0376 112.994 70.0376Z" fill="#FC3E60" stroke="#FC3E60" stroke-width="0.5"/>
<path d="M112.994 90.9517H66.2867C65.1423 90.9517 64.2109 91.8731 64.2109 93.0122C64.2109 94.1513 65.1422 95.0728 66.2867 95.0728H112.994C114.138 95.0728 115.07 94.1514 115.07 93.0122C115.07 91.873 114.138 90.9517 112.994 90.9517Z" fill="#FC3E60" stroke="#FC3E60" stroke-width="0.5"/>
<path d="M75.1915 27.0224C75.1915 25.8824 74.2593 24.9619 73.1157 24.9619H26.4078C25.2634 24.9619 24.332 25.8825 24.332 27.0224C24.332 28.1624 25.2634 29.0831 26.4078 29.0831H73.1157C74.2593 29.0831 75.1915 28.1625 75.1915 27.0224Z" fill="#FC3E60" stroke="#FC3E60" stroke-width="0.5"/>
</g>
<defs>
<clipPath id="clip0_106_69">
<rect width="140" height="134" fill="white"/>
</clipPath>
</defs>
</svg>
