<svg width="32" height="32" viewBox="0 0 32 32" fill="none" xmlns="http://www.w3.org/2000/svg">
<path d="M20.278 15.5238L24.291 11.5109C24.3627 11.439 24.4046 11.3444 24.4142 11.2441C24.5105 11.2346 24.6046 11.1948 24.6783 11.1209C25.7268 10.0723 25.7268 8.3662 24.6783 7.3176C24.1705 6.80928 23.4953 6.52946 22.7768 6.52946C22.0584 6.52946 21.3832 6.8095 20.8754 7.3176C20.7999 7.39304 20.7601 7.48936 20.7517 7.58763C20.6534 7.59676 20.558 7.63481 20.4869 7.70612L16.4746 11.7199L10.8779 6.12246C10.7149 5.95896 10.426 5.9594 10.2629 6.12246L6.12733 10.2603C5.95756 10.4301 5.95756 10.7054 6.12733 10.8752L11.7229 16.4726L8.09535 20.1008C8.05078 20.1454 8.01643 20.1989 7.99491 20.258L6.65472 23.8963C6.38298 24.6318 6.62907 25.0286 6.79993 25.1995C6.9158 25.3156 7.13558 25.4662 7.49492 25.4662C7.66492 25.4662 7.86622 25.4325 8.1023 25.3451L11.7316 24.008C11.7918 23.9874 11.8485 23.953 11.8966 23.905L11.897 23.9045L15.5257 20.2761L21.1214 25.8726C21.203 25.9541 21.3136 26 21.4288 26C21.5443 26 21.6549 25.9541 21.7364 25.8726L25.8727 21.7347C26.0424 21.5649 26.0424 21.2897 25.8727 21.1199L20.278 15.5238ZM22.7771 7.39935C23.2629 7.39935 23.7199 7.58872 24.0636 7.93267C24.7729 8.64232 24.7729 9.79658 24.0636 10.5062C24.0353 10.5345 24.0133 10.5665 23.9947 10.5997L21.3971 8.00159C21.4303 7.98268 21.4623 7.96072 21.4906 7.93245C21.834 7.58872 22.291 7.39935 22.7771 7.39935ZM11.3642 14.8835L12.4829 13.7644C12.6527 13.5946 12.6527 13.3192 12.4829 13.1494C12.3131 12.9798 12.0379 12.9796 11.8679 13.1494L10.7494 14.2684L9.24228 12.7608L10.3603 11.6427C10.5301 11.4729 10.5301 11.1976 10.3603 11.0278C10.1905 10.858 9.9151 10.858 9.74554 11.0278L8.62751 12.146L7.04971 10.5678L10.5707 7.04474L15.8598 12.3347L12.3377 15.8575L11.3642 14.8835ZM11.5896 22.9818L10.1592 21.551C9.98966 21.3812 9.71402 21.3812 9.54445 21.551C9.37467 21.7208 9.37467 21.9961 9.54445 22.1659L10.8018 23.4236L7.80144 24.5292C7.55253 24.6209 7.43123 24.5946 7.4171 24.5868C7.40492 24.5681 7.3784 24.4468 7.47057 24.1972V24.1967L8.77773 20.6481L12.637 16.7881C12.6398 16.7854 12.6431 16.7835 12.6459 16.7809C12.6487 16.7783 12.6505 16.7748 12.6531 16.772L16.7641 12.66C16.7704 12.6543 16.7776 12.6502 16.7837 12.6439C16.7898 12.6378 16.7939 12.6306 16.7998 12.6243L20.7943 8.62884L23.3684 11.2035L15.2333 19.3386C15.2281 19.3434 15.222 19.3468 15.2168 19.352C15.2115 19.3573 15.2081 19.3631 15.2033 19.3684L11.5896 22.9818ZM21.4288 24.9499L19.8499 23.371L20.9686 22.2522C21.1384 22.0824 21.1384 21.8071 20.9686 21.6373C20.7991 21.4675 20.5234 21.4675 20.3538 21.6373L19.2352 22.7561L17.7284 21.249L18.8473 20.13C19.0171 19.9602 19.0171 19.6849 18.8473 19.5151C18.6778 19.3453 18.4021 19.3453 18.2326 19.5151L17.1137 20.6342L16.1404 19.661L19.663 16.1386L24.9501 21.4271L21.4288 24.9499Z" fill="#FFFFFA"/>
</svg>
