<svg width="150" height="150" viewBox="0 0 150 150" fill="none" xmlns="http://www.w3.org/2000/svg">
<path d="M136.327 15.9H13.6734C10.7686 15.9 8.4 18.2474 8.4 21.1427V106.497C8.4 109.392 10.7686 111.74 13.6734 111.74H60.1878V119.198H58.1323C54.3341 119.198 51.2377 122.268 51.2377 126.051V132.491C51.2377 133.383 51.964 134.1 52.8531 134.1H97.1464C98.0355 134.1 98.7618 133.383 98.7618 132.491V126.051C98.7618 122.268 95.6664 119.198 91.8682 119.198H89.8117V111.74H136.327C139.232 111.74 141.6 109.392 141.6 106.497V21.1427C141.6 18.2474 139.232 15.9 136.327 15.9ZM91.8682 122.416C93.8906 122.416 95.531 124.051 95.531 126.051V130.883H54.4685V126.051C54.4685 124.051 56.1088 122.416 58.1323 122.416H61.8032H88.1963H91.8682ZM63.4185 119.198V111.74H86.5809V119.198H63.4185ZM138.37 106.497C138.37 107.61 137.456 108.522 136.327 108.522H88.1963H61.8032H13.6734C12.5443 108.522 11.6308 107.61 11.6308 106.497V95.7617H138.37V106.497ZM138.37 92.5442H11.6308V21.1427C11.6308 20.0303 12.5443 19.1175 13.6734 19.1175H136.327C137.456 19.1175 138.37 20.0303 138.37 21.1427V92.5442Z" fill="#FC3E60" stroke="#FC3E60" stroke-width="1.2"/>
<path d="M82.0612 53.6281L82.0611 53.6282C81.5172 54.0647 81.4311 54.8576 81.8706 55.399C82.1209 55.708 82.4884 55.867 82.8562 55.867C83.1339 55.867 83.4157 55.7756 83.6492 55.5884L83.6492 55.5884C86.9752 52.9216 89.8526 49.8547 92.2001 46.4731L92.2001 46.473C92.5976 45.8997 92.4523 45.1154 91.8763 44.7211C91.3014 44.3258 90.5152 44.4717 90.1178 45.0419L90.1175 45.0423C87.9096 48.2233 85.1994 51.1123 82.0612 53.6281Z" fill="#FC3E60" stroke="#FC3E60" stroke-width="0.5"/>
<path d="M101.023 29.9313L101.023 29.9313C101.53 29.8497 102.042 29.7745 102.556 29.7062C102.985 29.6456 103.418 29.8077 103.707 30.126L103.708 30.1267C103.998 30.4475 104.112 30.8901 104.009 31.3111M101.023 29.9313L103.718 31.2402M101.023 29.9313C96.3122 30.6905 91.5085 32.3217 86.746 34.7765C79.5798 38.4698 73.0434 44.0042 67.84 50.7795L59.1254 62.1271M101.023 29.9313L59.1254 62.1271M104.009 31.3111C104.009 31.3113 104.009 31.3114 104.009 31.3116L103.718 31.2402M104.009 31.3111C104.009 31.311 104.009 31.311 104.009 31.3109L103.718 31.2402M104.009 31.3111C103.888 31.8118 103.76 32.3095 103.624 32.8032M103.718 31.2402C103.597 31.7386 103.47 32.2336 103.335 32.7242M103.624 32.8032L103.335 32.7242M103.624 32.8032C102.375 37.379 100.244 41.9567 97.2923 46.4084L97.2923 46.4085C92.8497 53.1069 86.631 58.9915 79.3085 63.4295L67.0455 70.8617M103.624 32.8032C103.624 32.8034 103.624 32.8036 103.624 32.8037L103.335 32.7242M103.335 32.7242L67.0455 70.8617M67.0455 70.8617C67.047 70.8061 67.0481 70.7503 67.0488 70.6944L66.7488 70.6908M67.0455 70.8617L97.0423 46.2426C92.6258 52.9019 86.4402 58.7563 79.153 63.173L66.7488 70.6908M67.0455 70.8617C66.9766 73.4395 66.0356 75.745 64.3553 77.2488M67.0455 70.8617L66.9043 70.9473L66.7488 70.6908M66.7488 70.6908C66.7177 73.2699 65.7969 75.5561 64.1552 77.0253M52.6538 64.3452C54.2921 62.8788 56.6755 62.2055 59.2637 62.4396L68.078 50.9622C73.256 44.2198 79.7589 38.7151 86.8835 35.0431C91.6213 32.6011 96.3948 30.9811 101.071 30.2275L52.6538 64.3452ZM52.6538 64.3452C49.4053 67.2547 46.5862 79.0916 46.2759 80.4313C46.2015 80.7519 46.2898 81.0888 46.5109 81.3331C46.7052 81.5469 46.9799 81.6666 47.2655 81.6666C47.3061 81.6666 47.3478 81.6641 47.3894 81.6592C48.7638 81.4912 60.9068 79.9338 64.1552 77.0253M52.6538 64.3452L64.3553 77.2488M59.1254 62.1271C56.5357 61.9299 54.131 62.6204 52.4537 64.1217L52.4536 64.1217C51.5942 64.8915 50.788 66.2236 50.0591 67.7698C49.3259 69.3249 48.6549 71.1319 48.0781 72.8831C46.9243 76.386 46.1396 79.6902 45.9836 80.3636M59.1254 62.1271L45.9836 80.3636M45.9836 80.3636C45.9836 80.3636 45.9836 80.3635 45.9836 80.3635L46.2688 80.4296L45.9836 80.3636ZM64.3553 77.2488L64.1552 77.0253M64.3553 77.2488C64.3553 77.2488 64.3553 77.2489 64.3553 77.2489L64.1552 77.0253M62.5957 75.303L62.5956 75.303C62.1202 75.7287 61.284 76.1531 60.1946 76.5588C59.1139 76.9613 57.8157 77.3341 56.4433 77.6698C53.8863 78.2951 51.0913 78.7863 49.0065 79.098C49.535 77.0708 50.3163 74.3614 51.2069 71.9008C51.6851 70.5796 52.1929 69.3356 52.7078 68.3096C53.2267 67.2753 53.7381 66.4932 54.2134 66.0675C55.7581 64.6855 57.8757 64.631 59.0841 64.7421L64.4271 70.6326C64.414 71.8371 64.1419 73.9193 62.5957 75.303ZM87.9569 37.1007L87.957 37.1007C92.3101 34.8566 96.6793 33.3441 100.951 32.5981C99.7611 36.7394 97.794 40.8984 95.0966 44.9672C90.8698 51.3403 84.9377 56.9528 77.9405 61.1944C77.9405 61.1945 77.9405 61.1945 77.9405 61.1945L72.4692 64.5104L66.0446 57.4277L69.9302 52.3684C74.9026 45.8942 81.1369 40.6152 87.9569 37.1007ZM65.9832 68.4412L61.4361 63.4284L64.4196 59.5436L70.1821 65.8964L65.9832 68.4412Z" fill="#FC3E60" stroke="#FC3E60" stroke-width="0.6"/>
</svg>
