<svg width="150" height="150" viewBox="0 0 150 150" fill="none" xmlns="http://www.w3.org/2000/svg">
<path d="M125.6 9C121.9 9.00434 118.325 10.3407 115.53 12.7646C112.734 15.1885 110.905 18.5379 110.376 22.2H90.4C89.8165 22.2 89.2569 22.4318 88.8444 22.8444C88.4318 23.2569 88.2 23.8165 88.2 24.4C88.2 24.9835 88.4318 25.5431 88.8444 25.9556C89.2569 26.3682 89.8165 26.6 90.4 26.6H110.2V112.4C110.2 112.983 110.432 113.543 110.844 113.956C111.257 114.368 111.817 114.6 112.4 114.6C112.983 114.6 113.543 114.368 113.956 113.956C114.368 113.543 114.6 112.983 114.6 112.4C114.6 109.483 115.759 106.685 117.822 104.622C119.885 102.559 122.683 101.4 125.6 101.4C128.517 101.4 131.315 102.559 133.378 104.622C135.441 106.685 136.6 109.483 136.6 112.4V112.862C136.594 115.655 135.482 118.332 133.507 120.307C131.532 122.282 128.855 123.394 126.062 123.4H39.8V26.6H59.6C60.1835 26.6 60.7431 26.3682 61.1556 25.9556C61.5682 25.5431 61.8 24.9835 61.8 24.4C61.8 23.8165 61.5682 23.2569 61.1556 22.8444C60.7431 22.4318 60.1835 22.2 59.6 22.2H39.8V11.2C39.8 10.6165 39.5682 10.0569 39.1556 9.64436C38.7431 9.23178 38.1835 9 37.6 9H11.2C10.6165 9 10.0569 9.23178 9.64436 9.64436C9.23178 10.0569 9 10.6165 9 11.2V138.8C9 139.383 9.23178 139.943 9.64436 140.356C10.0569 140.768 10.6165 141 11.2 141H37.6C38.1835 141 38.7431 140.768 39.1556 140.356C39.5682 139.943 39.8 139.383 39.8 138.8V127.8H126.062C130.024 127.794 133.821 126.217 136.621 123.415C139.422 120.613 140.997 116.815 141 112.853V24.4C140.995 20.3171 139.371 16.4028 136.484 13.5157C133.597 10.6286 129.683 9.00466 125.6 9ZM35.4 136.6H13.4V130H22.2V125.6H13.4V121.2H17.8V116.8H13.4V112.4H22.2V108H13.4V103.6H17.8V99.2H13.4V94.8H22.2V90.4H13.4V86H17.8V81.6H13.4V77.2H22.2V72.8H13.4V68.4H17.8V64H13.4V59.6H22.2V55.2H13.4V50.8H17.8V46.4H13.4V42H22.2V37.6H13.4V33.2H17.8V28.8H13.4V24.4H22.2V20H13.4V13.4H35.4V136.6ZM136.6 101.62C135.168 100.154 133.457 98.9894 131.567 98.1941C129.678 97.3989 127.65 96.9892 125.6 96.9892C123.55 96.9892 121.522 97.3989 119.633 98.1941C117.743 98.9894 116.032 100.154 114.6 101.62V24.4C114.6 21.4826 115.759 18.6847 117.822 16.6218C119.885 14.5589 122.683 13.4 125.6 13.4C128.517 13.4 131.315 14.5589 133.378 16.6218C135.441 18.6847 136.6 21.4826 136.6 24.4V101.62Z" fill="#FC3E60"/>
<path d="M73.0341 104.583C73.2166 104.949 73.4975 105.257 73.8453 105.473C74.1931 105.688 74.5941 105.802 75.0031 105.802C75.4122 105.802 75.8131 105.688 76.1609 105.473C76.5087 105.257 76.7897 104.949 76.9721 104.583L83.5721 91.3834C83.7244 91.078 83.8034 90.7413 83.8031 90.4V17.8C83.8031 15.4661 82.876 13.2278 81.2257 11.5775C79.5753 9.92714 77.337 9 75.0031 9C72.6692 9 70.4309 9.92714 68.7806 11.5775C67.1303 13.2278 66.2031 15.4661 66.2031 17.8V90.4C66.2028 90.7413 66.2819 91.078 66.4341 91.3834L73.0341 104.583ZM77.2031 84.823V35.4H79.4031V86.2904L77.2031 84.823ZM72.8031 84.823L70.6031 86.2904V35.4H72.8031V84.823ZM79.4031 31H70.6031V26.6H79.4031V31ZM75.0031 98.6808L71.2389 91.1524L75.0031 88.64L78.7673 91.148L75.0031 98.6808ZM70.6031 17.8C70.6031 16.633 71.0667 15.5139 71.8919 14.6887C72.717 13.8636 73.8362 13.4 75.0031 13.4C76.1701 13.4 77.2892 13.8636 78.1144 14.6887C78.9396 15.5139 79.4031 16.633 79.4031 17.8V22.2H70.6031V17.8Z" fill="#FC3E60"/>
<path d="M48.6016 112.4C48.6016 112.984 48.8333 113.543 49.2459 113.956C49.6585 114.368 50.2181 114.6 50.8016 114.6H99.2016C99.785 114.6 100.345 114.368 100.757 113.956C101.17 113.543 101.402 112.984 101.402 112.4C101.402 111.817 101.17 111.257 100.757 110.845C100.345 110.432 99.785 110.2 99.2016 110.2H50.8016C50.2181 110.2 49.6585 110.432 49.2459 110.845C48.8333 111.257 48.6016 111.817 48.6016 112.4Z" fill="#FC3E60"/>
</svg>
