<svg width="32" height="32" viewBox="0 0 32 32" fill="none" xmlns="http://www.w3.org/2000/svg">
<path fill-rule="evenodd" clip-rule="evenodd" d="M19.9659 11.0636C20.3006 10.7122 20.8432 10.7122 21.1779 11.0636L25.7492 15.8631C26.0839 16.2145 26.0839 16.7843 25.7492 17.1358L21.1779 21.9352C20.8432 22.2866 20.3006 22.2866 19.9659 21.9352C19.6312 21.5838 19.6312 21.014 19.9659 20.6625L23.931 16.4993L19.9659 12.3363C19.6312 11.9848 19.6312 11.4151 19.9659 11.0636Z" fill="#FFFFFA"/>
<path fill-rule="evenodd" clip-rule="evenodd" d="M12.0344 11.0636C11.6997 10.7122 11.157 10.7122 10.8223 11.0636L6.25104 15.8631C5.91632 16.2145 5.91632 16.7843 6.25104 17.1358L10.8223 21.9352C11.157 22.2866 11.6997 22.2866 12.0344 21.9352C12.3691 21.5838 12.3691 21.014 12.0344 20.6625L8.06923 16.4993L12.0344 12.3363C12.3691 11.9848 12.3691 11.4151 12.0344 11.0636Z" fill="#FFFFFA"/>
<path fill-rule="evenodd" clip-rule="evenodd" d="M17.3339 9.02258C17.7955 9.13272 18.0846 9.61489 17.9797 10.0995L15.1227 23.2981C15.0179 23.7827 14.5586 24.0863 14.097 23.9761C13.6354 23.866 13.3463 23.3837 13.4512 22.8991L16.3083 9.70067C16.4131 9.21602 16.8723 8.91243 17.3339 9.02258Z" fill="#FFFFFA"/>
</svg>
