<svg width="20" height="20" viewBox="0 0 20 20" fill="none" xmlns="http://www.w3.org/2000/svg">
<path d="M12.0768 14.408C12.0766 14.408 12.0764 14.408 12.0762 14.408C10.565 14.4071 8.83205 13.5842 7.32157 12.1505C7.31901 12.1481 7.31645 12.1456 7.31393 12.1431C5.84437 10.6695 5.00099 8.97873 5 7.50444C5 6.96162 5.28498 6.39072 5.80247 5.89662C6.15852 5.55671 6.68417 5.21368 7.05595 5.21368C7.62879 5.21368 7.78123 5.47798 8.01196 5.87804C8.06818 5.97554 8.13188 6.08603 8.21432 6.21968C8.25997 6.29341 8.32284 6.38691 8.38946 6.48587C8.81262 7.11484 9.07911 7.55467 8.93372 7.9225C8.81971 8.20876 8.51814 8.44367 8.22646 8.67082C8.11852 8.75493 7.96375 8.87543 7.8952 8.94827C7.94814 9.23545 8.3338 9.84343 9.00629 10.4995C9.67788 11.1547 10.3003 11.5308 10.5955 11.5832C10.6698 11.5163 10.7924 11.3664 10.8781 11.2618C11.1118 10.9761 11.3536 10.6807 11.6479 10.5702C11.7157 10.5446 11.7901 10.5316 11.8688 10.5316C12.2047 10.5316 12.5994 10.7677 13.1202 11.1013C13.2216 11.1662 13.3175 11.2276 13.3936 11.2724C13.5301 11.3525 13.6433 11.4147 13.7433 11.4696C14.1533 11.6947 14.4242 11.8434 14.4242 12.4022C14.4242 12.7648 14.0724 13.2775 13.7237 13.6249C13.2173 14.1293 12.6324 14.4075 12.0768 14.408ZM7.87529 11.6029C9.21889 12.8768 10.7891 13.6378 12.0763 13.6388C12.8546 13.6379 13.595 12.6529 13.6358 12.3954C13.6355 12.3428 13.6324 12.3151 13.6301 12.302C13.5899 12.2679 13.4665 12.2002 13.3566 12.1399C13.2572 12.0853 13.1334 12.0173 12.9866 11.9312C12.8972 11.8785 12.7953 11.8133 12.6876 11.7443C12.4833 11.6135 12.0727 11.3506 11.8978 11.3066C11.79 11.3802 11.6009 11.6114 11.4942 11.7417C11.2238 12.0722 10.9902 12.3577 10.6608 12.3588C9.85835 12.358 8.76484 11.3518 8.44875 11.0434C8.13267 10.735 7.10129 9.66817 7.10046 8.88696C7.10046 8.56355 7.39431 8.33472 7.73455 8.06969C7.86748 7.96619 8.10295 7.78282 8.17884 7.67801C8.13346 7.50717 7.86429 7.10707 7.73034 6.908C7.65957 6.80285 7.59276 6.70351 7.5391 6.61686C7.4504 6.47306 7.38075 6.35233 7.32481 6.2553C7.26299 6.14811 7.19353 6.02773 7.15865 5.9885C7.1452 5.98627 7.11686 5.98319 7.06289 5.98292C6.79869 6.0225 5.78839 6.7447 5.78839 7.50421C5.7893 8.75985 6.56937 10.2919 7.87529 11.6029Z" fill="white"/>
<path d="M2.3942 18C2.29476 18 2.19683 17.9628 2.12203 17.8923C2.00825 17.7851 1.96995 17.6214 2.02449 17.4757L3.32435 14.0057C2.37244 12.5343 1.92667 10.7842 2.06717 9.05487C2.21527 7.23212 3.01175 5.52229 4.3098 4.24033C5.77262 2.79564 7.73126 2 9.82492 2C11.9938 2 14.0433 2.84448 15.596 4.37792C18.746 7.48893 18.8086 12.4891 15.7354 15.5243C14.2727 16.9687 12.3142 17.7643 10.221 17.7643C10.2208 17.7643 10.2209 17.7643 10.2208 17.7643C8.70339 17.7643 7.22567 17.3455 5.9333 16.5511L2.54801 17.9691C2.49836 17.9899 2.44606 18 2.3942 18ZM5.9707 15.7234C6.04668 15.7234 6.12219 15.745 6.18753 15.7875C7.39261 16.5715 8.78725 16.9858 10.2208 16.9859C12.1036 16.9859 13.8641 16.2714 15.178 14.9738C17.9439 12.2422 17.8814 7.73581 15.0386 4.92835C13.6348 3.54192 11.7832 2.77843 9.82492 2.77843C7.94179 2.77843 6.18111 3.49307 4.86718 4.79076C2.48263 7.14576 2.15565 10.9089 4.08969 13.7387C4.16071 13.8426 4.17671 13.9739 4.13265 14.0915L3.0804 16.9005L5.81688 15.7543C5.86622 15.7336 5.9186 15.7234 5.9707 15.7234Z" fill="white"/>
</svg>
