<svg width="416" height="208" viewBox="0 0 416 208" fill="none" xmlns="http://www.w3.org/2000/svg">
<g clip-path="url(#clip0_2639_15515)">
<path d="M87.8948 -0.000175965C76.5926 -0.0196159 65.3939 2.15468 54.9185 6.40236C54.4967 6.5754 54.0732 6.74928 53.65 6.9271C37.73 13.6522 24.147 24.9315 14.6032 39.3514C5.05938 53.7713 -0.020594 70.6903 -8.3092e-05 87.988V183.999C0.00105841 185.013 0.40393 185.985 1.12015 186.702C1.83637 187.419 2.80744 187.822 3.82032 187.824L3.89619 187.83C77.5311 201.217 149.117 208 216.724 208C217.737 208 218.75 207.998 219.761 207.995C286.217 207.793 350.926 201.01 412.09 187.833L412.179 187.824C413.192 187.822 414.163 187.419 414.88 186.702C415.596 185.985 415.999 185.013 416 183.999V3.82431C415.999 2.81035 415.596 1.83824 414.88 1.12126C414.163 0.404286 413.192 0.000991564 412.179 -0.000150028L87.8948 -0.000175965Z" fill="#FF1F6D"/>
<path d="M316.584 76.5711C315.922 76.582 315.291 76.853 314.826 77.3257C314.362 77.7983 314.101 78.4348 314.101 79.0978C314.101 79.7608 314.362 80.3973 314.826 80.87C315.291 81.3426 315.922 81.6136 316.584 81.6245H379.87C380.201 81.6303 380.531 81.5707 380.84 81.4489C381.148 81.3271 381.43 81.1456 381.668 80.9148C381.907 80.684 382.098 80.4084 382.23 80.1038C382.362 79.7991 382.432 79.4714 382.438 79.1393C382.443 78.8073 382.383 78.4774 382.261 78.1686C382.139 77.8598 381.958 77.5781 381.727 77.3395C381.496 77.101 381.221 76.9104 380.916 76.7785C380.612 76.6467 380.284 76.5762 379.953 76.5711C379.925 76.5707 379.897 76.5707 379.87 76.5711H316.584Z" fill="#3F3D56"/>
<path d="M394.22 75.8678C394.174 75.914 394.137 75.9688 394.112 76.0291C394.087 76.0894 394.074 76.1541 394.074 76.2194C394.074 76.2847 394.087 76.3493 394.112 76.4097C394.137 76.47 394.174 76.5248 394.22 76.571L396.352 78.7054H391.094C390.963 78.7054 390.836 78.7578 390.743 78.851C390.65 78.9443 390.598 79.0707 390.598 79.2026C390.598 79.3345 390.65 79.4609 390.743 79.5542C390.836 79.6474 390.963 79.6998 391.094 79.6998H396.352L394.22 81.8342C394.174 81.8804 394.137 81.9352 394.112 81.9955C394.087 82.0558 394.074 82.1205 394.074 82.1858C394.074 82.2511 394.087 82.3157 394.112 82.3761C394.137 82.4364 394.174 82.4912 394.22 82.5374C394.266 82.5835 394.321 82.6202 394.381 82.6452C394.441 82.6701 394.506 82.683 394.571 82.683C394.636 82.683 394.701 82.6701 394.761 82.6452C394.821 82.6202 394.876 82.5835 394.922 82.5374L397.902 79.5542C397.995 79.4609 398.048 79.3345 398.048 79.2026C398.048 79.0707 397.995 78.9443 397.902 78.851L394.922 75.8678C394.876 75.8216 394.821 75.785 394.761 75.76C394.701 75.735 394.636 75.7222 394.571 75.7222C394.506 75.7222 394.441 75.735 394.381 75.76C394.321 75.785 394.266 75.8216 394.22 75.8678Z" fill="white"/>
<path d="M302.207 75.8678C302.253 75.914 302.29 75.9688 302.314 76.0291C302.339 76.0894 302.352 76.1541 302.352 76.2194C302.352 76.2847 302.339 76.3493 302.314 76.4097C302.29 76.47 302.253 76.5248 302.207 76.571L300.075 78.7054H305.332C305.398 78.7052 305.462 78.7179 305.523 78.7428C305.583 78.7677 305.638 78.8043 305.684 78.8505C305.731 78.8967 305.767 78.9516 305.793 79.012C305.818 79.0724 305.83 79.1372 305.83 79.2026C305.83 79.268 305.818 79.3328 305.793 79.3932C305.767 79.4536 305.731 79.5085 305.684 79.5547C305.638 79.6009 305.583 79.6375 305.523 79.6624C305.462 79.6873 305.398 79.7 305.332 79.6998H300.075L302.207 81.8342C302.3 81.9275 302.352 82.0539 302.352 82.1858C302.352 82.3176 302.3 82.4441 302.207 82.5374C302.114 82.6306 301.987 82.683 301.856 82.683C301.724 82.683 301.598 82.6306 301.504 82.5374L298.524 79.5542C298.431 79.4609 298.379 79.3345 298.379 79.2026C298.379 79.0707 298.431 78.9443 298.524 78.851L301.504 75.8678C301.551 75.8216 301.605 75.785 301.666 75.76C301.726 75.735 301.79 75.7222 301.856 75.7222C301.921 75.7222 301.985 75.735 302.046 75.76C302.106 75.785 302.161 75.8216 302.207 75.8678Z" fill="white"/>
<g opacity="0.4">
<path d="M319.138 24.1279C320.636 24.1279 321.851 22.9122 321.851 21.4126C321.851 19.913 320.636 18.6973 319.138 18.6973C317.64 18.6973 316.426 19.913 316.426 21.4126C316.426 22.9122 317.64 24.1279 319.138 24.1279Z" fill="white"/>
<path d="M330.439 24.1279C331.937 24.1279 333.151 22.9122 333.151 21.4126C333.151 19.913 331.937 18.6973 330.439 18.6973C328.941 18.6973 327.727 19.913 327.727 21.4126C327.727 22.9122 328.941 24.1279 330.439 24.1279Z" fill="white"/>
<path d="M341.744 24.1279C343.242 24.1279 344.456 22.9122 344.456 21.4126C344.456 19.913 343.242 18.6973 341.744 18.6973C340.246 18.6973 339.031 19.913 339.031 21.4126C339.031 22.9122 340.246 24.1279 341.744 24.1279Z" fill="white"/>
<path d="M353.044 24.1279C354.543 24.1279 355.757 22.9122 355.757 21.4126C355.757 19.913 354.543 18.6973 353.044 18.6973C351.546 18.6973 350.332 19.913 350.332 21.4126C350.332 22.9122 351.546 24.1279 353.044 24.1279Z" fill="white"/>
<path d="M364.345 24.1279C365.843 24.1279 367.058 22.9122 367.058 21.4126C367.058 19.913 365.843 18.6973 364.345 18.6973C362.847 18.6973 361.633 19.913 361.633 21.4126C361.633 22.9122 362.847 24.1279 364.345 24.1279Z" fill="white"/>
<path d="M375.646 24.1279C377.144 24.1279 378.358 22.9122 378.358 21.4126C378.358 19.913 377.144 18.6973 375.646 18.6973C374.148 18.6973 372.934 19.913 372.934 21.4126C372.934 22.9122 374.148 24.1279 375.646 24.1279Z" fill="white"/>
<path d="M386.951 24.1279C388.449 24.1279 389.663 22.9122 389.663 21.4126C389.663 19.913 388.449 18.6973 386.951 18.6973C385.453 18.6973 384.238 19.913 384.238 21.4126C384.238 22.9122 385.453 24.1279 386.951 24.1279Z" fill="white"/>
<path d="M319.138 32.7265C320.636 32.7265 321.851 31.5108 321.851 30.0111C321.851 28.5115 320.636 27.2958 319.138 27.2958C317.64 27.2958 316.426 28.5115 316.426 30.0111C316.426 31.5108 317.64 32.7265 319.138 32.7265Z" fill="white"/>
<path d="M330.439 32.7266C331.937 32.7266 333.151 31.5109 333.151 30.0112C333.151 28.5116 331.937 27.2959 330.439 27.2959C328.941 27.2959 327.727 28.5116 327.727 30.0112C327.727 31.5109 328.941 32.7266 330.439 32.7266Z" fill="white"/>
<path d="M341.744 32.7266C343.242 32.7266 344.456 31.5109 344.456 30.0112C344.456 28.5116 343.242 27.2959 341.744 27.2959C340.246 27.2959 339.031 28.5116 339.031 30.0112C339.031 31.5109 340.246 32.7266 341.744 32.7266Z" fill="white"/>
<path d="M353.044 32.7266C354.543 32.7266 355.757 31.5109 355.757 30.0112C355.757 28.5116 354.543 27.2959 353.044 27.2959C351.546 27.2959 350.332 28.5116 350.332 30.0112C350.332 31.5109 351.546 32.7266 353.044 32.7266Z" fill="white"/>
<path d="M364.345 32.7266C365.843 32.7266 367.058 31.5109 367.058 30.0112C367.058 28.5116 365.843 27.2959 364.345 27.2959C362.847 27.2959 361.633 28.5116 361.633 30.0112C361.633 31.5109 362.847 32.7266 364.345 32.7266Z" fill="white"/>
<path d="M375.646 32.7266C377.144 32.7266 378.358 31.5109 378.358 30.0112C378.358 28.5116 377.144 27.2959 375.646 27.2959C374.148 27.2959 372.934 28.5116 372.934 30.0112C372.934 31.5109 374.148 32.7266 375.646 32.7266Z" fill="white"/>
<path d="M386.951 32.7266C388.449 32.7266 389.663 31.5109 389.663 30.0112C389.663 28.5116 388.449 27.2959 386.951 27.2959C385.453 27.2959 384.238 28.5116 384.238 30.0112C384.238 31.5109 385.453 32.7266 386.951 32.7266Z" fill="white"/>
<path d="M319.138 41.325C320.636 41.325 321.851 40.1093 321.851 38.6096C321.851 37.11 320.636 35.8943 319.138 35.8943C317.64 35.8943 316.426 37.11 316.426 38.6096C316.426 40.1093 317.64 41.325 319.138 41.325Z" fill="white"/>
<path d="M330.439 41.3252C331.937 41.3252 333.151 40.1095 333.151 38.6099C333.151 37.1102 331.937 35.8945 330.439 35.8945C328.941 35.8945 327.727 37.1102 327.727 38.6099C327.727 40.1095 328.941 41.3252 330.439 41.3252Z" fill="white"/>
<path d="M341.744 41.3252C343.242 41.3252 344.456 40.1095 344.456 38.6099C344.456 37.1102 343.242 35.8945 341.744 35.8945C340.246 35.8945 339.031 37.1102 339.031 38.6099C339.031 40.1095 340.246 41.3252 341.744 41.3252Z" fill="white"/>
<path d="M353.044 41.3252C354.543 41.3252 355.757 40.1095 355.757 38.6099C355.757 37.1102 354.543 35.8945 353.044 35.8945C351.546 35.8945 350.332 37.1102 350.332 38.6099C350.332 40.1095 351.546 41.3252 353.044 41.3252Z" fill="white"/>
<path d="M364.345 41.3252C365.843 41.3252 367.058 40.1095 367.058 38.6099C367.058 37.1102 365.843 35.8945 364.345 35.8945C362.847 35.8945 361.633 37.1102 361.633 38.6099C361.633 40.1095 362.847 41.3252 364.345 41.3252Z" fill="white"/>
<path d="M375.646 41.3252C377.144 41.3252 378.358 40.1095 378.358 38.6099C378.358 37.1102 377.144 35.8945 375.646 35.8945C374.148 35.8945 372.934 37.1102 372.934 38.6099C372.934 40.1095 374.148 41.3252 375.646 41.3252Z" fill="white"/>
<path d="M386.951 41.3252C388.449 41.3252 389.663 40.1095 389.663 38.6099C389.663 37.1102 388.449 35.8945 386.951 35.8945C385.453 35.8945 384.238 37.1102 384.238 38.6099C384.238 40.1095 385.453 41.3252 386.951 41.3252Z" fill="white"/>
<path d="M319.138 49.9235C320.636 49.9235 321.851 48.7078 321.851 47.2082C321.851 45.7086 320.636 44.4929 319.138 44.4929C317.64 44.4929 316.426 45.7086 316.426 47.2082C316.426 48.7078 317.64 49.9235 319.138 49.9235Z" fill="white"/>
<path d="M330.439 49.9233C331.937 49.9233 333.151 48.7076 333.151 47.208C333.151 45.7084 331.937 44.4927 330.439 44.4927C328.941 44.4927 327.727 45.7084 327.727 47.208C327.727 48.7076 328.941 49.9233 330.439 49.9233Z" fill="white"/>
<path d="M319.138 58.522C320.636 58.522 321.851 57.3064 321.851 55.8067C321.851 54.3071 320.636 53.0914 319.138 53.0914C317.64 53.0914 316.426 54.3071 316.426 55.8067C316.426 57.3064 317.64 58.522 319.138 58.522Z" fill="white"/>
<path d="M330.439 58.522C331.937 58.522 333.151 57.3063 333.151 55.8066C333.151 54.307 331.937 53.0913 330.439 53.0913C328.941 53.0913 327.727 54.307 327.727 55.8066C327.727 57.3063 328.941 58.522 330.439 58.522Z" fill="white"/>
<path d="M341.744 58.522C343.242 58.522 344.456 57.3063 344.456 55.8066C344.456 54.307 343.242 53.0913 341.744 53.0913C340.246 53.0913 339.031 54.307 339.031 55.8066C339.031 57.3063 340.246 58.522 341.744 58.522Z" fill="white"/>
<path d="M341.744 49.9233C343.242 49.9233 344.456 48.7076 344.456 47.208C344.456 45.7084 343.242 44.4927 341.744 44.4927C340.246 44.4927 339.031 45.7084 339.031 47.208C339.031 48.7076 340.246 49.9233 341.744 49.9233Z" fill="white"/>
<path d="M353.044 49.9233C354.543 49.9233 355.757 48.7076 355.757 47.208C355.757 45.7084 354.543 44.4927 353.044 44.4927C351.546 44.4927 350.332 45.7084 350.332 47.208C350.332 48.7076 351.546 49.9233 353.044 49.9233Z" fill="white"/>
<path d="M364.345 49.9233C365.843 49.9233 367.058 48.7076 367.058 47.208C367.058 45.7084 365.843 44.4927 364.345 44.4927C362.847 44.4927 361.633 45.7084 361.633 47.208C361.633 48.7076 362.847 49.9233 364.345 49.9233Z" fill="white"/>
<path d="M375.646 49.9233C377.144 49.9233 378.358 48.7076 378.358 47.208C378.358 45.7084 377.144 44.4927 375.646 44.4927C374.148 44.4927 372.934 45.7084 372.934 47.208C372.934 48.7076 374.148 49.9233 375.646 49.9233Z" fill="white"/>
<path d="M386.951 49.9233C388.449 49.9233 389.663 48.7076 389.663 47.208C389.663 45.7084 388.449 44.4927 386.951 44.4927C385.453 44.4927 384.238 45.7084 384.238 47.208C384.238 48.7076 385.453 49.9233 386.951 49.9233Z" fill="white"/>
</g>
<path d="M280.231 159.548C277.269 159.548 274.374 158.669 271.912 157.022C269.45 155.375 267.531 153.034 266.398 150.295C265.264 147.556 264.968 144.542 265.546 141.635C266.123 138.727 267.549 136.057 269.643 133.96C271.737 131.864 274.405 130.437 277.31 129.858C280.214 129.28 283.225 129.577 285.96 130.711C288.696 131.846 291.035 133.767 292.68 136.232C294.325 138.697 295.203 141.595 295.203 144.559C295.199 148.533 293.62 152.343 290.813 155.153C288.006 157.963 284.2 159.543 280.231 159.548ZM280.231 130.42C277.437 130.42 274.707 131.249 272.384 132.803C270.061 134.357 268.251 136.565 267.182 139.148C266.113 141.732 265.833 144.575 266.378 147.317C266.923 150.06 268.268 152.579 270.244 154.557C272.219 156.534 274.735 157.881 277.475 158.426C280.215 158.972 283.055 158.692 285.636 157.622C288.216 156.551 290.422 154.739 291.974 152.414C293.526 150.089 294.354 147.355 294.354 144.559C294.35 140.81 292.861 137.217 290.213 134.566C287.565 131.915 283.975 130.424 280.231 130.42Z" fill="#3F3D56"/>
<path d="M285.971 143.122H281.665V138.812C281.665 138.431 281.514 138.066 281.245 137.797C280.976 137.527 280.611 137.376 280.23 137.376C279.849 137.376 279.484 137.527 279.215 137.797C278.946 138.066 278.795 138.431 278.795 138.812V143.122H274.49C274.109 143.122 273.744 143.274 273.475 143.543C273.206 143.813 273.055 144.178 273.055 144.559C273.055 144.94 273.206 145.305 273.475 145.575C273.744 145.844 274.109 145.996 274.49 145.996H278.795V150.306C278.795 150.687 278.946 151.052 279.215 151.321C279.484 151.591 279.849 151.742 280.23 151.742C280.611 151.742 280.976 151.591 281.245 151.321C281.514 151.052 281.665 150.687 281.665 150.306V145.996H285.971C286.351 145.996 286.716 145.844 286.985 145.575C287.254 145.305 287.406 144.94 287.406 144.559C287.406 144.178 287.254 143.813 286.985 143.543C286.716 143.274 286.351 143.122 285.971 143.122Z" fill="white"/>
<g opacity="0.4">
<path d="M22.9334 161.388C24.1112 161.388 25.066 160.432 25.066 159.253C25.066 158.074 24.1112 157.118 22.9334 157.118C21.7556 157.118 20.8008 158.074 20.8008 159.253C20.8008 160.432 21.7556 161.388 22.9334 161.388Z" fill="white"/>
<path d="M22.9334 152.493C24.1112 152.493 25.066 151.537 25.066 150.358C25.066 149.179 24.1112 148.223 22.9334 148.223C21.7556 148.223 20.8008 149.179 20.8008 150.358C20.8008 151.537 21.7556 152.493 22.9334 152.493Z" fill="white"/>
<path d="M22.9334 143.597C24.1112 143.597 25.066 142.642 25.066 141.462C25.066 140.283 24.1112 139.328 22.9334 139.328C21.7556 139.328 20.8008 140.283 20.8008 141.462C20.8008 142.642 21.7556 143.597 22.9334 143.597Z" fill="white"/>
<path d="M22.9334 134.702C24.1112 134.702 25.066 133.746 25.066 132.567C25.066 131.388 24.1112 130.432 22.9334 130.432C21.7556 130.432 20.8008 131.388 20.8008 132.567C20.8008 133.746 21.7556 134.702 22.9334 134.702Z" fill="white"/>
<path d="M22.9334 125.807C24.1112 125.807 25.066 124.851 25.066 123.672C25.066 122.493 24.1112 121.537 22.9334 121.537C21.7556 121.537 20.8008 122.493 20.8008 123.672C20.8008 124.851 21.7556 125.807 22.9334 125.807Z" fill="white"/>
<path d="M22.9334 116.912C24.1112 116.912 25.066 115.956 25.066 114.777C25.066 113.598 24.1112 112.642 22.9334 112.642C21.7556 112.642 20.8008 113.598 20.8008 114.777C20.8008 115.956 21.7556 116.912 22.9334 116.912Z" fill="white"/>
<path d="M22.9334 108.016C24.1112 108.016 25.066 107.06 25.066 105.881C25.066 104.702 24.1112 103.747 22.9334 103.747C21.7556 103.747 20.8008 104.702 20.8008 105.881C20.8008 107.06 21.7556 108.016 22.9334 108.016Z" fill="white"/>
<path d="M29.6873 161.388C30.8651 161.388 31.8199 160.432 31.8199 159.253C31.8199 158.074 30.8651 157.118 29.6873 157.118C28.5095 157.118 27.5547 158.074 27.5547 159.253C27.5547 160.432 28.5095 161.388 29.6873 161.388Z" fill="white"/>
<path d="M29.6873 152.492C30.8651 152.492 31.8199 151.537 31.8199 150.358C31.8199 149.178 30.8651 148.223 29.6873 148.223C28.5095 148.223 27.5547 149.178 27.5547 150.358C27.5547 151.537 28.5095 152.492 29.6873 152.492Z" fill="white"/>
<path d="M29.6873 143.597C30.8651 143.597 31.8199 142.642 31.8199 141.462C31.8199 140.283 30.8651 139.328 29.6873 139.328C28.5095 139.328 27.5547 140.283 27.5547 141.462C27.5547 142.642 28.5095 143.597 29.6873 143.597Z" fill="white"/>
<path d="M29.6873 134.702C30.8651 134.702 31.8199 133.746 31.8199 132.567C31.8199 131.388 30.8651 130.432 29.6873 130.432C28.5095 130.432 27.5547 131.388 27.5547 132.567C27.5547 133.746 28.5095 134.702 29.6873 134.702Z" fill="white"/>
<path d="M29.6873 125.807C30.8651 125.807 31.8199 124.851 31.8199 123.672C31.8199 122.493 30.8651 121.537 29.6873 121.537C28.5095 121.537 27.5547 122.493 27.5547 123.672C27.5547 124.851 28.5095 125.807 29.6873 125.807Z" fill="white"/>
<path d="M29.6873 116.911C30.8651 116.911 31.8199 115.956 31.8199 114.776C31.8199 113.597 30.8651 112.642 29.6873 112.642C28.5095 112.642 27.5547 113.597 27.5547 114.776C27.5547 115.956 28.5095 116.911 29.6873 116.911Z" fill="white"/>
<path d="M29.6873 108.016C30.8651 108.016 31.8199 107.06 31.8199 105.881C31.8199 104.702 30.8651 103.747 29.6873 103.747C28.5095 103.747 27.5547 104.702 27.5547 105.881C27.5547 107.06 28.5095 108.016 29.6873 108.016Z" fill="white"/>
<path d="M36.4412 161.388C37.619 161.388 38.5738 160.432 38.5738 159.253C38.5738 158.074 37.619 157.118 36.4412 157.118C35.2634 157.118 34.3086 158.074 34.3086 159.253C34.3086 160.432 35.2634 161.388 36.4412 161.388Z" fill="white"/>
<path d="M36.4412 152.492C37.619 152.492 38.5738 151.537 38.5738 150.358C38.5738 149.178 37.619 148.223 36.4412 148.223C35.2634 148.223 34.3086 149.178 34.3086 150.358C34.3086 151.537 35.2634 152.492 36.4412 152.492Z" fill="white"/>
<path d="M36.4412 143.597C37.619 143.597 38.5738 142.642 38.5738 141.462C38.5738 140.283 37.619 139.328 36.4412 139.328C35.2634 139.328 34.3086 140.283 34.3086 141.462C34.3086 142.642 35.2634 143.597 36.4412 143.597Z" fill="white"/>
<path d="M36.4412 134.702C37.619 134.702 38.5738 133.746 38.5738 132.567C38.5738 131.388 37.619 130.432 36.4412 130.432C35.2634 130.432 34.3086 131.388 34.3086 132.567C34.3086 133.746 35.2634 134.702 36.4412 134.702Z" fill="white"/>
<path d="M36.4412 125.807C37.619 125.807 38.5738 124.851 38.5738 123.672C38.5738 122.493 37.619 121.537 36.4412 121.537C35.2634 121.537 34.3086 122.493 34.3086 123.672C34.3086 124.851 35.2634 125.807 36.4412 125.807Z" fill="white"/>
<path d="M36.4412 116.911C37.619 116.911 38.5738 115.956 38.5738 114.776C38.5738 113.597 37.619 112.642 36.4412 112.642C35.2634 112.642 34.3086 113.597 34.3086 114.776C34.3086 115.956 35.2634 116.911 36.4412 116.911Z" fill="white"/>
<path d="M36.4412 108.016C37.619 108.016 38.5738 107.06 38.5738 105.881C38.5738 104.702 37.619 103.747 36.4412 103.747C35.2634 103.747 34.3086 104.702 34.3086 105.881C34.3086 107.06 35.2634 108.016 36.4412 108.016Z" fill="white"/>
<path d="M43.1912 161.388C44.369 161.388 45.3238 160.432 45.3238 159.253C45.3238 158.074 44.369 157.118 43.1912 157.118C42.0134 157.118 41.0586 158.074 41.0586 159.253C41.0586 160.432 42.0134 161.388 43.1912 161.388Z" fill="white"/>
<path d="M43.1912 152.492C44.369 152.492 45.3238 151.537 45.3238 150.358C45.3238 149.178 44.369 148.223 43.1912 148.223C42.0134 148.223 41.0586 149.178 41.0586 150.358C41.0586 151.537 42.0134 152.492 43.1912 152.492Z" fill="white"/>
<path d="M49.9451 161.388C51.1229 161.388 52.0777 160.432 52.0777 159.253C52.0777 158.074 51.1229 157.118 49.9451 157.118C48.7673 157.118 47.8125 158.074 47.8125 159.253C47.8125 160.432 48.7673 161.388 49.9451 161.388Z" fill="white"/>
<path d="M49.9451 152.492C51.1229 152.492 52.0777 151.537 52.0777 150.358C52.0777 149.178 51.1229 148.223 49.9451 148.223C48.7673 148.223 47.8125 149.178 47.8125 150.358C47.8125 151.537 48.7673 152.492 49.9451 152.492Z" fill="white"/>
<path d="M49.9451 143.597C51.1229 143.597 52.0777 142.642 52.0777 141.462C52.0777 140.283 51.1229 139.328 49.9451 139.328C48.7673 139.328 47.8125 140.283 47.8125 141.462C47.8125 142.642 48.7673 143.597 49.9451 143.597Z" fill="white"/>
<path d="M43.1912 143.597C44.369 143.597 45.3238 142.642 45.3238 141.462C45.3238 140.283 44.369 139.328 43.1912 139.328C42.0134 139.328 41.0586 140.283 41.0586 141.462C41.0586 142.642 42.0134 143.597 43.1912 143.597Z" fill="white"/>
<path d="M43.1912 134.702C44.369 134.702 45.3238 133.746 45.3238 132.567C45.3238 131.388 44.369 130.432 43.1912 130.432C42.0134 130.432 41.0586 131.388 41.0586 132.567C41.0586 133.746 42.0134 134.702 43.1912 134.702Z" fill="white"/>
<path d="M43.1912 125.807C44.369 125.807 45.3238 124.851 45.3238 123.672C45.3238 122.493 44.369 121.537 43.1912 121.537C42.0134 121.537 41.0586 122.493 41.0586 123.672C41.0586 124.851 42.0134 125.807 43.1912 125.807Z" fill="white"/>
<path d="M43.1912 116.911C44.369 116.911 45.3238 115.956 45.3238 114.776C45.3238 113.597 44.369 112.642 43.1912 112.642C42.0134 112.642 41.0586 113.597 41.0586 114.776C41.0586 115.956 42.0134 116.911 43.1912 116.911Z" fill="white"/>
<path d="M43.1912 108.016C44.369 108.016 45.3238 107.06 45.3238 105.881C45.3238 104.702 44.369 103.747 43.1912 103.747C42.0134 103.747 41.0586 104.702 41.0586 105.881C41.0586 107.06 42.0134 108.016 43.1912 108.016Z" fill="white"/>
</g>
<path d="M211.146 14.0239H69.4759C68.7801 14.0246 68.113 14.3016 67.621 14.7942C67.129 15.2867 66.8523 15.9545 66.8516 16.6511V137.922C66.8523 138.618 67.129 139.286 67.621 139.779C68.113 140.271 68.7801 140.548 69.4759 140.549H211.146C211.842 140.548 212.509 140.271 213.001 139.779C213.493 139.286 213.77 138.618 213.77 137.922V16.6511C213.77 15.9545 213.493 15.2867 213.001 14.7942C212.509 14.3016 211.842 14.0246 211.146 14.0239ZM212.719 137.922C212.718 138.34 212.553 138.741 212.258 139.037C211.963 139.333 211.563 139.5 211.146 139.501H69.4759C69.0582 139.5 68.6578 139.334 68.3629 139.038C68.068 138.741 67.9026 138.34 67.9033 137.922V16.6511C67.9026 16.2329 68.068 15.8316 68.3629 15.5354C68.6578 15.2392 69.0582 15.0725 69.4759 15.0718H211.146C211.563 15.0733 211.963 15.2403 212.258 15.5363C212.553 15.8323 212.718 16.2331 212.719 16.6511V137.922Z" fill="#3F3D56"/>
<path d="M102.174 118.986C102.174 119.173 102.169 119.36 102.159 119.542C102.016 122.279 100.83 124.856 98.844 126.743C96.8583 128.63 94.225 129.681 91.4873 129.681C88.7497 129.681 86.1164 128.63 84.1307 126.743C82.145 124.856 80.9584 122.279 80.8155 119.542C80.8057 119.36 80.8008 119.173 80.8008 118.986C80.7999 117.58 81.0757 116.189 81.6123 114.89C82.149 113.591 82.936 112.411 83.9284 111.417C84.9209 110.423 86.0992 109.634 87.3962 109.096C88.6932 108.558 90.0834 108.281 91.4873 108.281C92.8913 108.281 94.2815 108.558 95.5785 109.096C96.8755 109.634 98.0538 110.423 99.0463 111.417C100.039 112.411 100.826 113.591 101.362 114.89C101.899 116.189 102.175 117.58 102.174 118.986Z" fill="white"/>
<path d="M200.135 111.853H116.165C115.693 111.853 115.241 112.041 114.908 112.376C114.574 112.71 114.387 113.163 114.387 113.636C114.387 114.108 114.574 114.562 114.908 114.896C115.241 115.23 115.693 115.419 116.165 115.419H200.135C200.607 115.419 201.059 115.23 201.392 114.896C201.726 114.562 201.913 114.108 201.913 113.636C201.913 113.163 201.726 112.71 201.392 112.376C201.059 112.041 200.607 111.853 200.135 111.853Z" fill="#3F3D56"/>
<path d="M152.297 122.553H116.166C115.694 122.553 115.241 122.74 114.908 123.074C114.574 123.408 114.387 123.861 114.387 124.334C114.387 124.806 114.574 125.259 114.908 125.593C115.241 125.927 115.694 126.115 116.166 126.115H152.297C152.769 126.115 153.221 125.927 153.555 125.593C153.889 125.259 154.076 124.806 154.076 124.334C154.076 123.861 153.889 123.408 153.555 123.074C153.221 122.74 152.769 122.553 152.297 122.553Z" fill="white"/>
<path d="M244.802 99.2581H103.133C102.171 99.2569 101.248 98.8738 100.568 98.1927C99.8876 97.5116 99.5049 96.5881 99.5039 95.6249V33.3873C99.505 32.4242 99.8876 31.5008 100.568 30.8197C101.248 30.1387 102.171 29.7555 103.133 29.7544H244.802C245.764 29.7555 246.687 30.1387 247.367 30.8197C248.047 31.5008 248.43 32.4242 248.431 33.3873V95.6249C248.43 96.5881 248.047 97.5115 247.367 98.1926C246.687 98.8738 245.764 99.2569 244.802 99.2581ZM103.133 31.0292C102.508 31.0299 101.91 31.2786 101.468 31.7207C101.026 32.1628 100.778 32.7622 100.777 33.3873V95.6249C100.778 96.2501 101.026 96.8495 101.468 97.2916C101.91 97.7337 102.508 97.9825 103.133 97.9832H244.802C245.427 97.9825 246.025 97.7337 246.467 97.2916C246.909 96.8495 247.157 96.2501 247.158 95.6249V33.3873C247.157 32.7622 246.908 32.1628 246.467 31.7207C246.025 31.2786 245.427 31.0299 244.802 31.0292H103.133Z" fill="white"/>
<path d="M131.984 52.4544C131.512 52.4544 131.059 52.6423 130.725 52.9766C130.391 53.311 130.203 53.7645 130.203 54.2374C130.203 54.7103 130.391 55.1638 130.725 55.4982C131.059 55.8326 131.512 56.0204 131.984 56.0204H215.951C216.424 56.0204 216.877 55.8326 217.211 55.4982C217.545 55.1638 217.732 54.7103 217.732 54.2374C217.732 53.7645 217.545 53.311 217.211 52.9766C216.877 52.6423 216.424 52.4544 215.951 52.4544H131.984Z" fill="white"/>
<path d="M131.984 62.7858C131.512 62.7858 131.059 62.9736 130.725 63.308C130.391 63.6424 130.203 64.0959 130.203 64.5688C130.203 65.0417 130.391 65.4952 130.725 65.8296C131.059 66.164 131.512 66.3518 131.984 66.3518H215.951C216.423 66.3511 216.876 66.1629 217.209 65.8286C217.542 65.4943 217.73 65.0412 217.73 64.5688C217.73 64.0964 217.542 63.6433 217.209 63.309C216.876 62.9747 216.423 62.7865 215.951 62.7858H131.984Z" fill="white"/>
<path d="M131.984 72.9919C131.512 72.9919 131.059 73.1797 130.725 73.5141C130.391 73.8485 130.203 74.302 130.203 74.7749C130.203 75.2478 130.391 75.7013 130.725 76.0357C131.059 76.3701 131.512 76.5579 131.984 76.5579H168.115C168.587 76.5572 169.04 76.369 169.373 76.0347C169.707 75.7004 169.894 75.2473 169.894 74.7749C169.894 74.3025 169.707 73.8494 169.373 73.5151C169.04 73.1808 168.587 72.9926 168.115 72.9919H131.984Z" fill="white"/>
<path d="M268.159 125.626L253.931 105.523L258.537 106.484C258.619 106.501 258.703 106.502 258.785 106.486C258.868 106.471 258.946 106.439 259.016 106.393C259.086 106.347 259.146 106.288 259.193 106.219C259.24 106.15 259.273 106.072 259.29 105.99C259.308 105.908 259.308 105.823 259.293 105.741C259.277 105.659 259.246 105.58 259.2 105.51C259.154 105.44 259.095 105.38 259.025 105.332C258.956 105.285 258.879 105.252 258.797 105.235L251.932 103.805L251.006 110.761C250.995 110.844 251 110.929 251.021 111.01C251.042 111.091 251.08 111.167 251.131 111.234C251.181 111.301 251.245 111.357 251.317 111.399C251.39 111.441 251.47 111.469 251.553 111.48C251.636 111.491 251.721 111.485 251.802 111.464C251.883 111.442 251.959 111.404 252.025 111.353C252.092 111.302 252.147 111.239 252.189 111.166C252.231 111.093 252.258 111.013 252.269 110.93L252.89 106.258L267.121 126.363C267.169 126.431 267.23 126.489 267.301 126.534C267.372 126.579 267.451 126.609 267.533 126.623C267.615 126.637 267.7 126.635 267.781 126.616C267.863 126.597 267.94 126.563 268.008 126.515C268.076 126.466 268.134 126.405 268.179 126.334C268.223 126.263 268.253 126.184 268.268 126.102C268.282 126.019 268.279 125.935 268.261 125.853C268.242 125.772 268.208 125.694 268.159 125.626Z" fill="white"/>
<path d="M190.878 184.135H89.7401C89.2436 184.135 88.7675 183.937 88.4164 183.586C88.0653 183.234 87.8678 182.758 87.8672 182.26V157.146C87.8678 156.649 88.0653 156.172 88.4164 155.821C88.7675 155.469 89.2436 155.272 89.7401 155.271H190.878C191.374 155.272 191.85 155.469 192.202 155.821C192.553 156.172 192.75 156.649 192.751 157.146V182.26C192.75 182.758 192.553 183.234 192.202 183.586C191.85 183.937 191.374 184.135 190.878 184.135ZM89.7401 156.021C89.4422 156.021 89.1565 156.14 88.9458 156.351C88.7352 156.562 88.6167 156.848 88.6164 157.146V182.26C88.6167 182.559 88.7352 182.845 88.9458 183.056C89.1565 183.266 89.4422 183.385 89.7401 183.385H190.878C191.176 183.385 191.461 183.266 191.672 183.056C191.883 182.845 192.001 182.559 192.002 182.26V157.146C192.001 156.848 191.883 156.562 191.672 156.351C191.461 156.14 191.176 156.021 190.878 156.021H89.7401Z" fill="#3F3D56"/>
<path d="M105.457 176.377C109.671 176.377 113.087 172.957 113.087 168.739C113.087 164.521 109.671 161.102 105.457 161.102C101.244 161.102 97.8281 164.521 97.8281 168.739C97.8281 172.957 101.244 176.377 105.457 176.377Z" fill="white"/>
<path d="M123.075 163.648C122.907 163.648 122.742 163.68 122.587 163.744C122.433 163.808 122.292 163.902 122.174 164.02C122.056 164.138 121.962 164.279 121.898 164.433C121.834 164.588 121.801 164.753 121.801 164.921C121.801 165.088 121.834 165.254 121.898 165.409C121.962 165.563 122.056 165.704 122.174 165.822C122.292 165.94 122.433 166.034 122.587 166.098C122.742 166.161 122.907 166.194 123.075 166.194H183.019C183.356 166.194 183.68 166.06 183.918 165.821C184.157 165.582 184.29 165.258 184.29 164.921C184.29 164.583 184.157 164.259 183.918 164.021C183.68 163.782 183.356 163.648 183.019 163.648H123.075Z" fill="white"/>
<path d="M123.075 171.285C122.907 171.285 122.742 171.318 122.587 171.381C122.433 171.445 122.292 171.539 122.174 171.657C122.056 171.775 121.962 171.916 121.898 172.07C121.834 172.225 121.801 172.391 121.801 172.558C121.801 172.725 121.834 172.891 121.898 173.046C121.962 173.2 122.056 173.341 122.174 173.459C122.292 173.577 122.433 173.671 122.587 173.735C122.742 173.799 122.907 173.831 123.075 173.831H148.869C149.206 173.831 149.53 173.697 149.768 173.458C150.006 173.219 150.14 172.896 150.14 172.558C150.14 172.22 150.006 171.897 149.768 171.658C149.53 171.419 149.206 171.285 148.869 171.285H123.075Z" fill="white"/>
<path d="M324.322 94.6577H369.272C369.769 94.6583 370.245 94.856 370.596 95.2075C370.947 95.559 371.145 96.0355 371.145 96.5326V143.396C371.145 143.893 370.947 144.37 370.596 144.721C370.245 145.073 369.769 145.27 369.272 145.271H324.322C323.826 145.27 323.35 145.073 322.998 144.721C322.647 144.37 322.45 143.893 322.449 143.396V96.5326C322.45 96.0355 322.647 95.559 322.998 95.2075C323.35 94.856 323.826 94.6583 324.322 94.6577ZM369.272 144.521C369.57 144.521 369.856 144.402 370.067 144.191C370.277 143.98 370.396 143.694 370.396 143.396V96.5326C370.396 96.2344 370.277 95.9484 370.067 95.7375C369.856 95.5266 369.57 95.408 369.272 95.4077H324.322C324.024 95.408 323.739 95.5266 323.528 95.7375C323.317 95.9484 323.199 96.2344 323.198 96.5326V143.396C323.199 143.694 323.317 143.98 323.528 144.191C323.739 144.402 324.024 144.521 324.322 144.521H369.272Z" fill="#3F3D56"/>
<path d="M359.695 135.607C360.032 135.607 360.355 135.473 360.594 135.234C360.832 134.996 360.966 134.672 360.966 134.334C360.966 133.997 360.832 133.673 360.594 133.434C360.355 133.196 360.032 133.062 359.695 133.062H333.9C333.563 133.062 333.24 133.196 333.001 133.434C332.763 133.673 332.629 133.997 332.629 134.334C332.629 134.672 332.763 134.996 333.001 135.234C333.24 135.473 333.563 135.607 333.9 135.607H359.695Z" fill="white"/>
<path d="M359.693 128.107C359.86 128.108 360.026 128.075 360.18 128.011C360.335 127.947 360.475 127.854 360.594 127.735C360.712 127.617 360.806 127.477 360.87 127.322C360.934 127.167 360.967 127.002 360.967 126.834C360.967 126.667 360.934 126.501 360.87 126.347C360.806 126.192 360.712 126.052 360.594 125.934C360.475 125.815 360.335 125.722 360.18 125.658C360.026 125.594 359.86 125.561 359.693 125.562H333.899C333.732 125.561 333.566 125.594 333.412 125.658C333.257 125.722 333.117 125.815 332.998 125.934C332.88 126.052 332.786 126.192 332.722 126.347C332.658 126.501 332.625 126.667 332.625 126.834C332.625 127.002 332.658 127.167 332.722 127.322C332.786 127.477 332.88 127.617 332.998 127.735C333.117 127.854 333.257 127.947 333.412 128.011C333.566 128.075 333.732 128.108 333.899 128.107H359.693Z" fill="white"/>
<path d="M346.797 104.322C348.38 104.322 349.927 104.792 351.243 105.673C352.56 106.553 353.586 107.804 354.191 109.268C354.797 110.732 354.956 112.343 354.647 113.898C354.338 115.452 353.576 116.88 352.456 118C351.337 119.121 349.911 119.884 348.358 120.193C346.806 120.502 345.196 120.343 343.734 119.737C342.271 119.131 341.021 118.104 340.142 116.786C339.262 115.468 338.793 113.919 338.793 112.335C338.795 110.21 339.639 108.174 341.14 106.672C342.64 105.17 344.675 104.325 346.797 104.322Z" fill="white"/>
</g>
<defs>
<clipPath id="clip0_2639_15515">
<rect width="416" height="208" fill="white"/>
</clipPath>
</defs>
</svg>
