<svg width="338" height="316" viewBox="0 0 338 316" fill="none" xmlns="http://www.w3.org/2000/svg">
<g clip-path="url(#clip0_2639_15863)">
<g filter="url(#filter0_d_2639_15863)">
<path d="M227.834 224.016H106.585C96.393 224.016 88.1016 215.703 88.1016 205.484V83.9122C88.1016 73.6934 96.393 65.3799 106.585 65.3799H227.834C238.026 65.3799 246.318 73.6934 246.318 83.9122V205.484C246.318 215.703 238.026 224.016 227.834 224.016ZM106.585 68.345C98.01 68.345 91.0589 75.3147 91.0589 83.9122V205.484C91.0589 214.082 98.01 221.051 106.585 221.051H191.517C220.149 221.051 243.36 197.779 243.36 169.07V83.9122C243.36 75.3147 236.409 68.345 227.834 68.345L106.585 68.345Z" fill="white"/>
</g>
<g filter="url(#filter1_d_2639_15863)">
<path d="M119.657 80.9871C113.918 80.9871 109.25 85.6679 109.25 91.4218V107.754C109.25 113.508 113.918 118.189 119.657 118.189H135.946C141.685 118.189 146.353 113.508 146.353 107.754V91.4218C146.353 85.6679 141.685 80.9871 135.946 80.9871H119.657Z" fill="white"/>
</g>
<g filter="url(#filter2_d_2639_15863)">
<path d="M119.657 126.966C113.918 126.966 109.25 131.646 109.25 137.4V153.733C109.25 159.487 113.918 164.168 119.657 164.168H135.946C141.685 164.168 146.353 159.487 146.353 153.733V137.4C146.353 131.646 141.685 126.966 135.946 126.966H119.657Z" fill="white"/>
</g>
<g filter="url(#filter3_d_2639_15863)">
<path d="M119.657 172.944C113.918 172.944 109.25 177.625 109.25 183.379V199.711C109.25 205.465 113.918 210.146 119.657 210.146H135.946C141.685 210.146 146.353 205.465 146.353 199.711V183.379C146.353 177.625 141.685 172.944 135.946 172.944H119.657Z" fill="white"/>
</g>
<path d="M130.457 41.1392C123.226 41.1392 117.344 47.0371 117.344 54.2872V74.8668C117.344 82.1169 123.226 88.0149 130.457 88.0149H150.982C158.213 88.0149 164.095 82.1169 164.095 74.8668V54.2872C164.095 47.0371 158.213 41.1392 150.982 41.1392H130.457Z" fill="#FF1F6D"/>
<path d="M198.031 98.6506C190.8 98.6506 184.918 104.549 184.918 111.799V132.378C184.918 139.628 190.8 145.526 198.031 145.526H218.556C225.787 145.526 231.669 139.628 231.669 132.378V111.799C231.669 104.549 225.787 98.6506 218.556 98.6506H198.031Z" fill="#FF1F6D"/>
<path d="M168.652 305.792L164.483 305.757L162.637 289.255L168.791 289.307L168.652 305.792Z" fill="#A0616A"/>
<path d="M155.297 312.44C155.288 313.469 156.115 314.316 157.145 314.326L165.436 314.395L166.887 311.446L167.42 314.41L170.548 314.439L169.758 303.865L168.67 303.792L164.231 303.485L162.799 303.389L162.773 306.381L156.114 310.91C155.607 311.255 155.302 311.827 155.297 312.44Z" fill="#2F2E41"/>
<path d="M189.867 305.792L185.697 305.757L183.852 289.255L190.006 289.307L189.867 305.792Z" fill="#A0616A"/>
<path d="M176.512 312.44C176.503 313.469 177.33 314.316 178.36 314.326L186.65 314.395L188.102 311.446L188.635 314.41L191.763 314.439L190.973 303.865L189.885 303.792L185.446 303.485L184.013 303.389L183.988 306.381L177.329 310.91C176.822 311.255 176.517 311.827 176.512 312.44Z" fill="#2F2E41"/>
<path d="M152.29 172.375L169.192 172.91L185.204 176.478C185.204 176.478 183.603 178.44 188.94 183.792C188.94 183.792 196.057 196.279 191.075 208.409L188.94 256.93C188.94 256.93 195.165 291.135 190.409 302.021L184.123 302.415L173.487 257.325L168.302 208.766L165.812 256.574C165.812 256.574 175.34 289.388 169.323 302.415L162.515 302.021L150.867 256.574C150.867 256.574 145.885 204.128 146.597 194.138C147.309 184.149 152.29 172.375 152.29 172.375Z" fill="#2F2E41"/>
<path d="M209.052 95.7043C206.742 96.3042 205.353 98.6685 205.952 100.985C206.226 102.047 206.872 102.91 207.711 103.481L207.711 103.487L207.383 111.447L213.458 114.266L213.943 102.016L213.901 102.018C214.428 101.077 214.61 99.94 214.319 98.8128C213.721 96.4962 211.363 95.1045 209.052 95.7043Z" fill="#A0616A"/>
<path d="M175.096 124.114C173.82 122.846 173.079 121.126 173.052 119.256C173.014 116.747 174.268 114.47 176.406 113.165C178.867 111.662 181.945 111.814 184.247 113.552L203.325 127.955L206.725 107.206L214.023 109.562L212.282 136.579C212.16 138.469 211.095 140.134 209.432 141.032C207.769 141.931 205.797 141.909 204.155 140.972L176.585 125.244C176.031 124.928 175.532 124.548 175.096 124.114Z" fill="#3F3D56"/>
<path d="M146.007 84.0989C147.226 86.1559 146.552 88.8148 144.5 90.0376C143.56 90.5979 142.495 90.7552 141.499 90.5679L141.495 90.5723L136.138 96.4566L129.844 94.1697L138.101 85.1284L138.13 85.1592C138.417 84.1191 139.086 83.1833 140.084 82.5883C142.135 81.3655 144.787 82.0418 146.007 84.0989Z" fill="#A0616A"/>
<path d="M148.319 127.996L117.696 119.702C115.873 119.208 114.456 117.832 113.907 116.02C113.357 114.208 113.77 112.274 115.01 110.846L132.744 90.4308L139.581 93.91L127.426 111.044L151.088 114.284C153.943 114.675 156.236 116.74 156.928 119.544C157.53 121.98 156.821 124.482 155.033 126.238C153.7 127.546 151.967 128.245 150.17 128.244C149.556 128.244 148.934 128.163 148.319 127.996Z" fill="#3F3D56"/>
<path d="M191.98 179.514L149.157 181.483C147.981 179.692 148.299 177 149.946 173.628C156.165 160.897 151.442 136.812 148.265 124.27C147.374 120.752 149.767 117.254 153.37 116.892L157.407 116.487L161.14 105.064H174.211L179.634 111.276L188.837 116.881C187.162 134.182 180.024 158.612 190.192 170.863C192.416 173.543 193.047 176.44 191.98 179.514Z" fill="#3F3D56"/>
<path d="M166.009 105.328C173.041 105.328 178.741 99.6123 178.741 92.562C178.741 85.5116 173.041 79.7961 166.009 79.7961C158.978 79.7961 153.277 85.5116 153.277 92.562C153.277 99.6123 158.978 105.328 166.009 105.328Z" fill="#A0616A"/>
<path d="M180.417 84.3905C182.188 77.915 162.881 72.3621 159.13 77.5768C158.608 76.8354 156.68 76.3851 155.795 76.6126C154.911 76.84 154.167 77.4085 153.441 77.9589C152.443 78.7276 151.409 79.5236 150.796 80.6289C150.179 81.7296 150.084 83.2306 150.914 84.1858C151.572 84.9454 152.728 88.9819 153.717 89.182C154.406 89.323 154.987 89.4367 155.486 89.5186C155.931 88.8682 157.064 88.0511 156.983 87.2642C157.654 87.71 157.409 88.4942 157.273 89.2957C156.823 91.9647 146.667 112.625 152.484 106.537C153.06 106.878 153.772 107.197 154.593 107.488C155.986 105.382 157.129 102.898 157.882 100.301L157.888 100.349C158.147 102.606 159.792 104.458 161.968 105.09C170.699 107.626 177.761 103.905 180.191 97.1943C179.301 95.384 178.914 95.5806 178.993 95.5268C180.104 94.7765 181.63 95.2672 182.107 96.5214C182.247 96.8912 182.375 97.2069 182.486 97.4445C183.752 92.905 185.257 93.5602 180.417 84.3905Z" fill="#2F2E41"/>
<path d="M174.394 79.6923L173.502 75.1208C173.427 74.7365 173.356 74.3196 173.529 73.9684C173.751 73.5172 174.322 73.3303 174.818 73.4022C175.315 73.4741 175.686 73.9289 176.181 74.0165C177.898 74.321 180.169 72.6196 180.785 76.9238C181.041 78.7184 183.897 78.9079 184.851 80.4481C185.805 81.9883 185.922 84.2114 184.62 85.4696C183.581 86.4746 181.911 86.5906 180.561 86.0772C179.211 85.5639 178.127 84.527 177.181 83.4335C176.234 82.3401 175.377 81.1568 174.285 80.2092" fill="#2F2E41"/>
<path d="M181.097 86.6454C177.613 86.1574 175.239 84.887 174.039 82.8698C172.469 80.2291 173.521 77.3215 173.566 77.199L174.303 77.4734C174.293 77.5002 173.339 80.1618 174.718 82.4732C175.791 84.2712 177.974 85.4125 181.206 85.8653L181.097 86.6454Z" fill="#FF1F6D"/>
<path d="M197.447 37.2501C187.205 37.2501 178.871 28.8943 178.871 18.6251C178.871 8.35581 187.205 0 197.447 0C207.689 0 216.022 8.35581 216.022 18.6251C216.022 28.8943 207.689 37.2501 197.447 37.2501ZM197.447 7.45003C191.301 7.45003 186.301 12.4628 186.301 18.6251C186.301 24.7873 191.301 29.8001 197.447 29.8001C203.593 29.8001 208.592 24.7873 208.592 18.6251C208.592 12.4628 203.593 7.45003 197.447 7.45003Z" fill="#FF1F6D"/>
<path d="M226.029 49.9075C225.118 49.9075 224.206 49.5746 223.489 48.8998L206.054 32.5174C204.556 31.1115 204.48 28.7542 205.884 27.2537C207.284 25.7477 209.635 25.6731 211.134 27.0827L228.568 43.4651C230.067 44.8711 230.143 47.2283 228.739 48.7289C228.008 49.5128 227.019 49.9075 226.029 49.9075Z" fill="#FF1F6D"/>
<path d="M304.823 305.374C306.086 305.453 306.784 303.88 305.829 302.963L305.734 302.584C305.746 302.553 305.759 302.523 305.771 302.493C307.049 299.439 311.378 299.46 312.645 302.518C313.769 305.233 315.2 307.952 315.553 310.823C315.711 312.09 315.639 313.381 315.359 314.624C317.993 308.855 319.379 302.555 319.379 296.22C319.379 294.628 319.292 293.036 319.115 291.448C318.968 290.15 318.767 288.859 318.506 287.58C317.097 280.666 314.044 274.082 309.641 268.582C307.524 267.422 305.759 265.608 304.693 263.434C304.309 262.65 304.009 261.807 303.867 260.948C304.108 260.979 304.775 257.301 304.594 257.075C304.929 256.565 305.53 256.311 305.897 255.812C307.72 253.333 310.233 253.766 311.544 257.135C314.346 258.552 314.373 260.904 312.654 263.165C311.56 264.604 311.41 266.551 310.45 268.091C310.549 268.218 310.652 268.34 310.75 268.467C312.561 270.795 314.127 273.298 315.447 275.927C315.074 273.005 315.625 269.485 316.564 267.216C317.632 264.63 319.636 262.453 321.4 260.218C323.519 257.533 327.865 258.705 328.238 262.108C328.242 262.141 328.245 262.174 328.249 262.207C327.987 262.355 327.73 262.513 327.479 262.679C326.049 263.627 326.543 265.851 328.238 266.113L328.276 266.119C328.182 267.065 328.02 268.004 327.783 268.926C330.046 277.703 325.16 280.899 318.183 281.043C318.029 281.122 317.879 281.201 317.725 281.276C318.431 283.272 318.996 285.319 319.415 287.394C319.79 289.227 320.051 291.08 320.197 292.941C320.378 295.289 320.363 297.649 320.165 299.993L320.177 299.91C320.678 297.328 322.076 294.917 324.106 293.246C327.13 290.756 331.402 289.838 334.664 287.836C336.235 286.873 338.247 288.118 337.973 289.944L337.96 290.031C337.474 290.229 337 290.459 336.542 290.716C336.28 290.864 336.023 291.022 335.772 291.188C334.342 292.136 334.836 294.36 336.531 294.622L336.57 294.628C336.597 294.632 336.621 294.636 336.649 294.64C335.815 296.624 334.654 298.465 333.201 300.053C331.786 307.714 325.707 308.441 319.205 306.21H319.201C318.491 309.314 317.452 312.347 316.117 315.238H305.099C305.06 315.115 305.024 314.988 304.989 314.865C306.008 314.929 307.034 314.869 308.037 314.683C307.22 313.678 306.403 312.664 305.585 311.658C305.565 311.638 305.549 311.619 305.534 311.599C305.119 311.084 304.7 310.573 304.286 310.059L304.286 310.058C304.26 308.478 304.449 306.903 304.823 305.374Z" fill="#F2F2F2"/>
<path d="M0 315.27C0 315.675 0.324072 316 0.727628 316H337.187C337.59 316 337.914 315.675 337.914 315.27C337.914 314.866 337.59 314.541 337.187 314.541H0.727628C0.324072 314.541 0 314.866 0 315.27Z" fill="#CCCCCC"/>
</g>
<defs>
<filter id="filter0_d_2639_15863" x="84.1016" y="61.3799" width="166.216" height="166.637" filterUnits="userSpaceOnUse" color-interpolation-filters="sRGB">
<feFlood flood-opacity="0" result="BackgroundImageFix"/>
<feColorMatrix in="SourceAlpha" type="matrix" values="0 0 0 0 0 0 0 0 0 0 0 0 0 0 0 0 0 0 127 0" result="hardAlpha"/>
<feOffset/>
<feGaussianBlur stdDeviation="2"/>
<feComposite in2="hardAlpha" operator="out"/>
<feColorMatrix type="matrix" values="0 0 0 0 0 0 0 0 0 0 0 0 0 0 0 0 0 0 0.05 0"/>
<feBlend mode="normal" in2="BackgroundImageFix" result="effect1_dropShadow_2639_15863"/>
<feBlend mode="normal" in="SourceGraphic" in2="effect1_dropShadow_2639_15863" result="shape"/>
</filter>
<filter id="filter1_d_2639_15863" x="105.25" y="76.9871" width="45.1035" height="45.2021" filterUnits="userSpaceOnUse" color-interpolation-filters="sRGB">
<feFlood flood-opacity="0" result="BackgroundImageFix"/>
<feColorMatrix in="SourceAlpha" type="matrix" values="0 0 0 0 0 0 0 0 0 0 0 0 0 0 0 0 0 0 127 0" result="hardAlpha"/>
<feOffset/>
<feGaussianBlur stdDeviation="2"/>
<feComposite in2="hardAlpha" operator="out"/>
<feColorMatrix type="matrix" values="0 0 0 0 0 0 0 0 0 0 0 0 0 0 0 0 0 0 0.05 0"/>
<feBlend mode="normal" in2="BackgroundImageFix" result="effect1_dropShadow_2639_15863"/>
<feBlend mode="normal" in="SourceGraphic" in2="effect1_dropShadow_2639_15863" result="shape"/>
</filter>
<filter id="filter2_d_2639_15863" x="105.25" y="122.966" width="45.1035" height="45.2021" filterUnits="userSpaceOnUse" color-interpolation-filters="sRGB">
<feFlood flood-opacity="0" result="BackgroundImageFix"/>
<feColorMatrix in="SourceAlpha" type="matrix" values="0 0 0 0 0 0 0 0 0 0 0 0 0 0 0 0 0 0 127 0" result="hardAlpha"/>
<feOffset/>
<feGaussianBlur stdDeviation="2"/>
<feComposite in2="hardAlpha" operator="out"/>
<feColorMatrix type="matrix" values="0 0 0 0 0 0 0 0 0 0 0 0 0 0 0 0 0 0 0.05 0"/>
<feBlend mode="normal" in2="BackgroundImageFix" result="effect1_dropShadow_2639_15863"/>
<feBlend mode="normal" in="SourceGraphic" in2="effect1_dropShadow_2639_15863" result="shape"/>
</filter>
<filter id="filter3_d_2639_15863" x="105.25" y="168.944" width="45.1035" height="45.2021" filterUnits="userSpaceOnUse" color-interpolation-filters="sRGB">
<feFlood flood-opacity="0" result="BackgroundImageFix"/>
<feColorMatrix in="SourceAlpha" type="matrix" values="0 0 0 0 0 0 0 0 0 0 0 0 0 0 0 0 0 0 127 0" result="hardAlpha"/>
<feOffset/>
<feGaussianBlur stdDeviation="2"/>
<feComposite in2="hardAlpha" operator="out"/>
<feColorMatrix type="matrix" values="0 0 0 0 0 0 0 0 0 0 0 0 0 0 0 0 0 0 0.05 0"/>
<feBlend mode="normal" in2="BackgroundImageFix" result="effect1_dropShadow_2639_15863"/>
<feBlend mode="normal" in="SourceGraphic" in2="effect1_dropShadow_2639_15863" result="shape"/>
</filter>
<clipPath id="clip0_2639_15863">
<rect width="338" height="316" fill="white"/>
</clipPath>
</defs>
</svg>
