<svg width="377" height="329" viewBox="0 0 377 329" fill="none" xmlns="http://www.w3.org/2000/svg">
<g clip-path="url(#clip0_2639_15800)">
<path d="M140.865 147.387C141.024 147.299 141.179 147.209 141.331 147.115C141.722 145.233 142.112 143.35 142.502 141.467C144.8 143.871 149.319 143.417 151.1 140.604C144.889 127.262 136.72 114.936 126.87 104.04C124.722 101.653 123.518 98.5565 123.483 95.336C123.448 92.1154 124.586 88.9935 126.682 86.5602C126.719 86.516 126.757 86.4715 126.794 86.4266C132.356 84.5349 137.624 81.8566 142.438 78.472C125.929 51.7629 94.4481 30.5443 86.9655 0C64.4545 24.3422 61.9276 32.9153 39.4166 57.2576C39.4166 57.2576 18.1014 76.6253 13.5006 87.0339C14.6311 88.2296 24.7516 91.0989 25.1407 93.4498C32.8588 94.0729 46.2302 85.5543 46.2302 85.5543C46.2302 85.5543 17.045 116.885 8.184 136.184C7.38607 137.922 6.62822 139.906 7.29668 141.698C7.83038 143.129 9.74491 143.955 10.978 143.386C9.505 144.817 8.32231 146.522 7.49574 148.407C12.5345 151.836 19.9654 151.083 24.2238 146.711C22.9896 149.032 21.7554 151.354 20.5212 153.676L20.5234 153.682C22.1908 154.23 23.6872 155.207 24.8647 156.517C26.0422 157.826 26.8601 159.422 27.2376 161.147C27.615 162.872 27.539 164.666 27.017 166.352C26.4951 168.039 25.5452 169.559 24.2612 170.762C16.6024 177.935 9.60417 185.474 7.03987 190.439C4.62752 195.11 29.3969 200.74 34.9682 200.509C40.5394 200.279 45.747 197.814 50.7788 195.394C50.5336 197.705 50.9725 200.036 52.0402 202.096C54.7959 202.77 57.6574 202.882 60.4567 202.426C63.256 201.97 65.9367 200.956 68.3412 199.443C68.041 205.691 78.7357 208.164 81.1727 202.41C80.2584 205.792 84.7038 207.887 88.1318 208.499C97.9129 210.248 109.716 211.311 116.081 203.63C123.406 211.068 136.83 210.927 144.113 203.515C143.396 204.794 144.494 206.946 146.116 207.285C148.029 207.684 149.89 206.54 151.513 205.447C158.864 200.498 166.215 195.55 173.566 190.601L139.721 167.627C132.355 162.627 133.076 151.687 140.865 147.387Z" fill="#FFD6E4"/>
<path d="M84.0945 328.696H79.3137C77.0494 273.966 75.4188 221.593 79.3137 189.768H84.0945L84.0945 328.696Z" fill="#F2F2F2"/>
<path d="M330.173 317.299C330.49 317.313 330.803 317.23 331.07 317.059C331.338 316.889 331.547 316.639 331.669 316.345C331.791 316.051 331.82 315.726 331.753 315.415C331.686 315.103 331.525 314.82 331.292 314.604C331.254 314.448 331.226 314.336 331.187 314.18C331.201 314.146 331.215 314.112 331.229 314.078C331.547 313.321 332.081 312.674 332.763 312.221C333.446 311.768 334.246 311.528 335.063 311.531C335.88 311.534 336.678 311.78 337.357 312.238C338.036 312.697 338.565 313.347 338.878 314.107C340.129 317.141 341.722 320.181 342.114 323.389C342.287 324.807 342.214 326.244 341.899 327.637C344.837 321.183 346.363 314.167 346.373 307.067C346.374 305.285 346.275 303.505 346.079 301.734C345.916 300.283 345.69 298.841 345.402 297.41C343.827 289.646 340.445 282.369 335.535 276.176C333.158 274.871 331.236 272.863 330.028 270.423C329.59 269.546 329.281 268.61 329.109 267.644C329.377 267.679 329.65 267.701 329.918 267.719C330.002 267.724 330.089 267.728 330.173 267.732L330.204 267.734C330.499 267.747 330.791 267.674 331.046 267.524C331.3 267.374 331.506 267.154 331.639 266.888C331.772 266.623 331.826 266.325 331.794 266.03C331.763 265.734 331.647 265.455 331.461 265.224C331.345 265.081 331.229 264.937 331.113 264.794C330.938 264.573 330.758 264.356 330.582 264.134C330.561 264.113 330.542 264.091 330.525 264.068C330.322 263.816 330.12 263.568 329.918 263.316C330.287 262.739 330.783 262.256 331.368 261.904C333.395 260.709 336.19 261.537 337.653 263.382C339.121 265.228 339.398 267.817 338.888 270.122C338.387 272.084 337.558 273.946 336.436 275.628C336.546 275.769 336.66 275.906 336.77 276.048C338.778 278.649 340.529 281.441 341.997 284.386C341.64 281.087 342.066 277.75 343.239 274.65C344.429 271.76 346.659 269.326 348.622 266.828C350.981 263.827 355.817 265.137 356.232 268.941C356.236 268.978 356.24 269.014 356.244 269.051C355.953 269.217 355.667 269.393 355.388 269.579C355.037 269.815 354.765 270.152 354.608 270.547C354.45 270.941 354.415 271.374 354.506 271.789C354.598 272.204 354.811 272.581 355.119 272.872C355.427 273.162 355.815 273.352 356.232 273.417L356.275 273.424C356.171 274.482 355.987 275.531 355.726 276.561C354.967 279.438 353.626 282.126 351.788 284.456C349.949 286.786 347.652 288.709 345.041 290.104C344.87 290.192 344.703 290.281 344.531 290.365C346.006 294.572 346.931 298.955 347.283 303.403C347.482 306.027 347.47 308.663 347.248 311.285L347.261 311.192C347.823 308.276 349.368 305.645 351.634 303.743C354.999 300.96 359.754 299.935 363.384 297.697C363.77 297.448 364.219 297.315 364.677 297.313C365.136 297.312 365.585 297.443 365.972 297.691C366.359 297.938 366.668 298.292 366.862 298.711C367.056 299.129 367.127 299.594 367.066 300.052C367.062 300.085 367.057 300.117 367.052 300.15C366.51 300.372 365.983 300.628 365.474 300.915C365.182 301.081 364.897 301.257 364.617 301.443C364.266 301.679 363.994 302.016 363.837 302.411C363.68 302.805 363.645 303.238 363.736 303.653C363.827 304.068 364.041 304.445 364.349 304.736C364.657 305.026 365.045 305.217 365.462 305.281L365.505 305.288C365.535 305.292 365.562 305.297 365.592 305.301C364.668 307.525 363.37 309.571 361.756 311.351C359.761 313.506 357.351 315.227 354.673 316.411C351.995 317.594 349.104 318.214 346.18 318.233H346.175C345.381 321.707 344.231 325.089 342.743 328.323H330.481C330.437 328.186 330.397 328.044 330.358 327.907C331.493 327.979 332.632 327.911 333.751 327.704C332.841 326.579 331.931 325.446 331.021 324.322C331.001 324.301 330.982 324.279 330.964 324.256C330.503 323.681 330.037 323.11 329.575 322.534L329.575 322.534C329.55 320.77 329.752 319.011 330.173 317.299Z" fill="#F2F2F2"/>
<path d="M51.5389 317.299C51.2226 317.313 50.9095 317.23 50.642 317.059C50.3745 316.889 50.1655 316.639 50.0434 316.345C49.9212 316.051 49.8918 315.726 49.9591 315.415C50.0265 315.103 50.1873 314.82 50.4198 314.604C50.4587 314.448 50.4867 314.336 50.5256 314.18C50.5117 314.146 50.4977 314.112 50.4836 314.078C50.1649 313.321 49.631 312.674 48.9488 312.221C48.2667 311.768 47.4667 311.528 46.6494 311.531C45.8321 311.534 45.034 311.78 44.3552 312.238C43.6764 312.697 43.1472 313.347 42.8342 314.107C41.5831 317.141 39.9903 320.181 39.5981 323.389C39.4253 324.807 39.4982 326.244 39.8134 327.637C36.875 321.183 35.3491 314.167 35.3393 307.067C35.3386 305.285 35.437 303.505 35.6337 301.734C35.7964 300.283 36.022 298.841 36.3106 297.41C37.8855 289.646 41.267 282.369 46.1774 276.176C48.554 274.871 50.476 272.863 51.6843 270.423C52.1221 269.546 52.4315 268.61 52.6029 267.644C52.3348 267.679 52.0623 267.701 51.7942 267.719C51.7107 267.724 51.6228 267.728 51.5393 267.732L51.5078 267.734C51.2132 267.747 50.921 267.674 50.6664 267.524C50.4119 267.374 50.2058 267.153 50.073 266.888C49.9403 266.623 49.8865 266.325 49.9181 266.03C49.9497 265.734 50.0654 265.455 50.2513 265.224C50.367 265.08 50.4828 264.937 50.5987 264.794C50.7746 264.573 50.9547 264.356 51.1305 264.134C51.1508 264.113 51.1699 264.091 51.1877 264.068C51.3899 263.816 51.592 263.568 51.7942 263.316C51.4252 262.739 50.9288 262.256 50.3438 261.904C48.3177 260.709 45.5225 261.537 44.0589 263.382C42.591 265.228 42.3141 267.817 42.8239 270.122C43.3253 272.084 44.1546 273.946 45.2764 275.628C45.1665 275.769 45.0522 275.906 44.9423 276.048C42.9338 278.649 41.1832 281.441 39.7157 284.386C40.0726 281.087 39.6466 277.75 38.4729 274.65C37.2833 271.76 35.0536 269.326 33.0901 266.828C30.7316 263.827 25.8953 265.137 25.4798 268.941C25.4758 268.978 25.4718 269.014 25.468 269.051C25.7597 269.217 26.0451 269.393 26.3245 269.579C26.6754 269.815 26.9473 270.152 27.1046 270.547C27.2618 270.941 27.2971 271.374 27.2058 271.789C27.1146 272.204 26.9009 272.581 26.593 272.872C26.285 273.162 25.8971 273.352 25.48 273.417L25.4373 273.424C25.5412 274.482 25.7248 275.531 25.9866 276.561C26.7453 279.438 28.0859 282.126 29.9245 284.456C31.763 286.786 34.0598 288.709 36.6709 290.104C36.8423 290.192 37.0094 290.281 37.1808 290.365C35.7063 294.572 34.7815 298.955 34.4295 303.403C34.2302 306.027 34.2419 308.663 34.4646 311.285L34.4514 311.192C33.8888 308.276 32.3442 305.645 30.0784 303.743C26.7131 300.96 21.9585 299.935 18.328 297.697C17.9421 297.448 17.4935 297.314 17.035 297.313C16.5764 297.312 16.1272 297.443 15.7401 297.691C15.3531 297.938 15.0444 298.292 14.8505 298.711C14.6566 299.129 14.5856 299.594 14.6458 300.052C14.6507 300.085 14.6557 300.117 14.6607 300.15C15.2019 300.372 15.7288 300.628 16.2385 300.915C16.5301 301.081 16.8156 301.257 17.0949 301.443C17.4458 301.679 17.7177 302.016 17.875 302.411C18.0323 302.805 18.0676 303.238 17.9763 303.653C17.885 304.068 17.6714 304.445 17.3634 304.736C17.0555 305.026 16.6675 305.217 16.2504 305.281L16.2077 305.288C16.1769 305.292 16.1506 305.297 16.1198 305.301C17.0446 307.525 18.3425 309.571 19.9567 311.351C21.9508 313.506 24.3609 315.227 27.0393 316.411C29.7176 317.594 32.6078 318.214 35.5326 318.233H35.537C36.331 321.707 37.4813 325.089 38.9696 328.323H51.2316C51.2756 328.186 51.3152 328.044 51.3547 327.907C50.2197 327.979 49.0802 327.911 47.9617 327.704C48.8715 326.579 49.7813 325.446 50.691 324.322C50.7113 324.301 50.7304 324.279 50.7482 324.256C51.2097 323.681 51.6755 323.11 52.137 322.534L52.1372 322.534C52.1618 320.77 51.9605 319.011 51.5389 317.299Z" fill="#F2F2F2"/>
<path d="M232.594 260.654L229.41 261.918L255.338 328.166L258.522 326.902L232.594 260.654Z" fill="#E6E6E6"/>
<path d="M211.543 326.902L214.727 328.166L240.655 261.918L237.471 260.654L211.543 326.902Z" fill="#E6E6E6"/>
<path d="M233.703 272.763C246.197 272.763 256.325 268.82 256.325 263.958C256.325 259.095 246.197 255.152 233.703 255.152C221.21 255.152 211.082 259.095 211.082 263.958C211.082 268.82 221.21 272.763 233.703 272.763Z" fill="#E6E6E6"/>
<path d="M252.577 267.7L216.384 263.329C214.713 263.127 213.097 262.596 211.629 261.765C210.161 260.934 208.87 259.821 207.83 258.488C206.79 257.155 206.02 255.628 205.566 253.996C205.111 252.363 204.981 250.657 205.181 248.973C205.382 247.29 205.909 245.663 206.734 244.185C207.559 242.707 208.665 241.407 209.989 240.36C211.313 239.312 212.829 238.537 214.45 238.08C216.071 237.622 217.766 237.49 219.438 237.692L255.631 242.063C259.007 242.471 262.084 244.212 264.185 246.905C266.286 249.597 267.239 253.019 266.834 256.419C266.429 259.819 264.699 262.917 262.026 265.033C259.352 267.148 255.953 268.108 252.577 267.7Z" fill="#2F2E41"/>
<path d="M245.484 176.047L250.788 181.228L257.569 184.257C256.977 184.67 253.855 227.029 257.878 228.792C261.303 230.293 257.812 231.535 257.93 235.029C258.049 238.524 258.492 245.711 258.492 245.711C239.666 253.009 232.358 253.716 221.414 241.194C221.339 240.492 221.504 239.785 221.882 239.19C222.26 238.596 222.829 238.149 223.494 237.924C225.92 236.981 222.213 230.762 224.191 230.035C226.169 229.309 224.529 220.74 224.529 220.74L220.317 201.432L219.285 198.516L224.608 182.075L230.616 180.653L233.579 175.353L245.484 176.047Z" fill="#FFD6E4"/>
<path d="M174.553 215.173C175.129 214.698 175.802 214.355 176.524 214.169C177.246 213.984 178 213.96 178.732 214.099C179.464 214.238 180.157 214.538 180.762 214.976C181.367 215.414 181.869 215.98 182.233 216.635L200.065 213.437L196.342 222.141L179.979 223.844C178.846 224.387 177.555 224.493 176.35 224.141C175.145 223.789 174.11 223.004 173.441 221.935C172.772 220.867 172.516 219.588 172.721 218.342C172.926 217.095 173.578 215.968 174.553 215.173Z" fill="#A0616A"/>
<path d="M192.992 222.793C194.557 224.422 196.095 224.227 197.61 222.536L218.83 221.355L218.895 221.23C218.97 221.088 223.442 212.558 227.409 204.574C228.019 203.345 228.618 202.129 229.187 200.958C229.433 200.452 229.672 199.956 229.906 199.47C231.48 196.187 232.735 193.411 233.225 191.953C234.359 188.69 234.35 185.135 233.2 181.877L233.167 181.798L233.094 181.756C231.587 180.887 229.832 180.561 228.117 180.832C226.402 181.103 224.83 181.954 223.66 183.245C218.045 189.509 213.952 197.002 211.704 205.132L210.431 209.758L197.297 213.033C195.957 212.306 194.802 212.486 193.893 213.883L192.992 222.793Z" fill="#FFD6E4"/>
<path d="M213.609 310.404L218.116 314.545L236.122 299.011L229.471 292.9L213.609 310.404Z" fill="#FFB6B6"/>
<path d="M213.801 307.866L215.07 309.032L221.86 311.554L222.677 316.021L222.677 316.021C224.177 317.4 225.072 319.321 225.165 321.364C225.258 323.407 224.541 325.403 223.172 326.913L223.004 327.099L208.473 313.747L213.801 307.866Z" fill="#2F2E41"/>
<path d="M247.752 262.078L243.862 254.514C244.187 246.856 250.784 240.872 258.359 241.636C262.577 242.061 266.448 244.59 267.824 251.729C271.36 270.085 228.693 306.419 228.693 306.419L221.283 301.416L221.117 296.417L225.461 293.94L225.622 289.688L229.743 287.905L247.752 262.078Z" fill="#2F2E41"/>
<path d="M247.86 162.691C248.475 156.253 243.79 150.532 237.396 149.913C231.003 149.294 225.321 154.011 224.707 160.45C224.092 166.888 228.777 172.609 235.171 173.228C241.564 173.847 247.246 169.129 247.86 162.691Z" fill="#A0616A"/>
<path d="M245.647 309.256L240.555 312.639L225.172 294.471L232.688 289.477L245.647 309.256Z" fill="#FFB6B6"/>
<path d="M250.205 313.363L233.786 324.272L233.649 324.063C232.53 322.357 232.131 320.272 232.539 318.269C232.946 316.266 234.128 314.508 235.822 313.382L235.823 313.381L237.321 309.097L244.418 307.671L245.851 306.718L250.205 313.363Z" fill="#2F2E41"/>
<path d="M222.372 261.344L227.187 253.462C228.051 245.846 222.46 238.9 214.86 238.466C210.627 238.225 206.411 240.116 203.949 246.951C197.616 264.529 234.141 307.112 234.141 307.112L242.234 303.333L243.172 298.421L239.264 295.292L239.763 291.067L235.968 288.659L222.372 261.344Z" fill="#2F2E41"/>
<path d="M240.262 164.36C240.273 164.21 240.284 164.059 240.294 163.907C240.244 164.053 240.233 164.209 240.262 164.36Z" fill="#2F2E41"/>
<path d="M250.27 158.94C249.853 157.018 248.924 155.246 247.583 153.816C246.241 152.385 244.537 151.35 242.655 150.822C242.139 149.951 241.436 149.209 240.597 148.648C239.759 148.088 238.806 147.723 237.809 147.582C235.937 147.331 234.061 147.89 232.262 148.466C231.15 148.822 230.041 149.187 228.934 149.561C228.034 149.865 226.927 150.561 227.226 151.469C226.998 151.349 226.738 151.309 226.486 151.354C226.233 151.399 226.003 151.526 225.83 151.717C225.657 151.908 225.551 152.15 225.53 152.408C225.508 152.665 225.571 152.922 225.71 153.139C225.292 152.597 224.326 152.945 224.094 153.59C223.862 154.235 224.135 154.95 224.475 155.545C225.498 157.237 227.048 158.54 228.885 159.249C230.721 159.959 232.739 160.035 234.623 159.466C235.725 159.102 236.851 158.506 237.98 158.773C239.045 159.024 239.812 160.019 240.115 161.077C240.337 162.003 240.397 162.961 240.294 163.907C240.438 163.571 240.708 163.306 241.046 163.17C241.383 163.034 241.76 163.039 242.094 163.182C242.899 163.586 243.188 164.652 242.989 165.535C242.789 166.417 240.697 169.841 240.145 170.555C239.54 171.229 239.094 172.032 238.842 172.905C240.825 172.598 242.808 172.291 244.792 171.984L244.899 172.093C247.974 169.687 251.048 162.782 250.27 158.94Z" fill="#2F2E41"/>
<path d="M221.775 241.421C222.049 240.723 222.472 240.095 223.014 239.58C223.556 239.064 224.203 238.675 224.91 238.439C225.618 238.203 226.368 238.126 227.108 238.214C227.848 238.301 228.56 238.551 229.194 238.946L243.243 227.434L244.183 236.864L230.698 246.35C229.969 247.379 228.891 248.102 227.668 248.383C226.445 248.664 225.162 248.484 224.062 247.877C222.962 247.269 222.122 246.276 221.7 245.086C221.279 243.897 221.305 242.592 221.775 241.421Z" fill="#A0616A"/>
<path d="M244.004 238.613C245.697 239.223 247.006 238.769 247.541 236.173L263.467 225.186L263.464 225.045C265.541 224.883 265.066 193.957 261.88 192.444C261.298 189.037 259.577 185.933 257.002 183.647L256.935 183.594L256.85 183.592C255.114 183.569 253.423 184.142 252.054 185.217C250.685 186.292 249.721 187.805 249.32 189.505C247.43 197.727 247.463 206.278 249.417 214.484L250.533 219.151L243.581 225.077C241.66 224.57 240.808 225.349 240.949 227.321L244.004 238.613Z" fill="#FFD6E4"/>
<path d="M122.513 265.174L119.543 266.353L143.736 328.165L146.706 326.987L122.513 265.174Z" fill="#FFD6E4"/>
<path d="M102.873 326.987L105.844 328.166L130.036 266.353L127.066 265.174L102.873 326.987Z" fill="#FFD6E4"/>
<path d="M123.548 276.471C135.205 276.471 144.655 272.793 144.655 268.256C144.655 263.718 135.205 260.04 123.548 260.04C111.891 260.04 102.442 263.718 102.442 268.256C102.442 272.793 111.891 276.471 123.548 276.471Z" fill="#FFD6E4"/>
<path d="M110.74 173.577C111.219 176.589 112.866 179.288 115.319 181.078C117.773 182.868 120.832 183.604 123.824 183.124C124.163 183.07 124.497 183 124.827 182.915C127.592 182.211 129.995 180.49 131.564 178.091C133.133 175.692 133.754 172.79 133.305 169.953C133.163 169.05 132.914 168.168 132.562 167.325C131.484 164.728 129.497 162.619 126.979 161.398C124.46 160.177 121.584 159.928 118.896 160.698C116.207 161.469 113.892 163.205 112.39 165.578C110.887 167.951 110.3 170.797 110.74 173.577Z" fill="#FFB6B6"/>
<path d="M172.34 319.032L177.472 317.496L174.077 296.374L166.504 298.642L172.34 319.032Z" fill="#FFB6B6"/>
<path d="M140.871 310.695C141.184 310.969 141.497 311.24 141.813 311.511C142.443 312.052 143.08 312.588 143.719 313.117C144.04 313.381 144.365 313.647 144.686 313.908L144.685 313.918L144.705 313.925L144.712 313.93L145.23 314.15L146.329 312.213L146.835 311.321L147.551 310.057L148.863 307.746L155.77 295.574L148.494 292.486L148.027 293.609L148.023 293.608L147.792 294.165L143.447 304.546L142.56 306.668L142.532 306.732L141.999 308L141.539 309.098L141.026 310.326L140.871 310.695Z" fill="#FFB6B6"/>
<path d="M102.858 258.021C103.215 258.874 103.584 259.725 103.958 260.569C104.652 262.141 105.373 263.695 106.123 265.233C106.122 265.236 106.126 265.237 106.129 265.241C106.61 265.857 107.161 266.415 107.771 266.902C107.796 266.928 107.825 266.947 107.85 266.969C108.3 267.322 108.792 267.618 109.314 267.85C109.502 267.931 109.694 268.012 109.882 268.092C110.563 268.375 111.241 268.631 111.919 268.869C113.124 269.289 114.328 269.645 115.529 269.937C115.626 269.963 115.723 269.986 115.82 270.009C120.775 271.179 125.75 271.361 130.998 271.196C133.589 271.118 136.247 270.952 139.001 270.78C139.901 270.721 140.803 270.666 141.717 270.613C141.786 270.609 141.859 270.603 141.931 270.6C143.236 270.522 144.562 270.452 145.918 270.39C147.626 270.311 149.384 270.252 151.207 270.22L150.685 272.716C150.275 274.634 149.576 276.478 148.611 278.182C147.503 280.291 146.627 281.96 147.314 285.834L147.644 287.71C147.189 288.542 146.932 289.47 146.893 290.419C146.854 291.369 147.034 292.314 147.419 293.182L147.512 293.388L140.391 305.529L139.93 306.316L142.533 306.732L145.735 307.246L151.162 308.111L161.481 293.54L161.975 292.845L161.981 292.806L165.953 262.276C165.985 262.006 166.007 261.731 166.014 261.457C166.063 260.216 165.866 258.977 165.434 257.812C165.002 256.648 164.345 255.582 163.5 254.677C162.691 253.803 161.717 253.1 160.636 252.608C159.555 252.117 158.387 251.847 157.201 251.813L154.466 251.735L148.878 251.574L144.941 251.464L144.862 251.462L133.253 251.129L132.963 247.647L132.822 247.567L128.31 245.036L112.706 236.279L112.666 236.259L111.64 235.683L111.477 235.874C111.429 235.931 111.38 235.988 111.335 236.046C109.952 237.819 108.753 239.729 107.755 241.746C106.094 245.038 104.621 248.421 103.342 251.881C103.286 252.032 103.236 252.168 103.191 252.291L103.175 252.329C103.155 252.387 103.142 252.424 103.136 252.435C102.503 253.975 102.461 255.972 102.858 258.021Z" fill="#2F2E41"/>
<path d="M103.921 246.706C104.009 246.488 104.111 246.27 104.216 246.059C105.037 244.464 105.945 242.916 106.935 241.422C108.051 239.719 109.352 237.912 110.867 235.973C111.6 235.034 112.383 234.061 113.215 233.053C113.632 232.548 114.064 232.035 114.51 231.513C114.528 231.488 114.547 231.465 114.568 231.442L114.696 231.289L130.739 236.112L135.432 237.893L136.596 241.028L136.564 241.8C136.567 241.801 136.567 241.801 136.563 241.804L136.483 243.91L136.483 243.914L136.379 246.696L136.408 246.697L145.651 246.96L155.176 247.232L160.293 247.378C161.479 247.411 162.646 247.681 163.727 248.173C164.809 248.665 165.782 249.368 166.591 250.242C167.436 251.148 168.093 252.214 168.525 253.378C168.957 254.542 169.154 255.781 169.105 257.023C169.098 257.275 169.079 257.532 169.05 257.784L172.005 269.825C173.773 277.026 174.453 284.455 174.019 291.86L175.732 303.58L175.23 303.547L167.771 303.062L165.802 302.936L162.515 295.971C162.141 295.177 161.795 294.366 161.482 293.542C160.967 292.196 160.537 290.818 160.195 289.417L154.434 265.786C153.7 265.795 152.974 265.8 152.255 265.8C148.931 265.812 145.752 265.747 142.718 265.606C132.852 265.15 124.444 263.896 117.116 261.779C115.057 261.187 113.082 260.525 111.189 259.793C110.495 259.526 109.812 259.25 109.14 258.963C108.981 258.898 108.826 258.833 108.672 258.765C107.283 258.158 106.067 257.21 105.136 256.008C104.206 254.806 103.589 253.387 103.343 251.883C103.042 250.137 103.242 248.341 103.921 246.706Z" fill="#2F2E41"/>
<path d="M171.334 315.511L176.887 313.843L177.758 313.581L178.548 316.983L187.259 320.423C187.69 320.593 188.055 320.897 188.302 321.291C188.549 321.684 188.665 322.147 188.632 322.612C188.599 323.077 188.419 323.518 188.119 323.873C187.819 324.227 187.414 324.476 186.964 324.582L177.575 326.799L175.175 323.816L175.326 327.33L171.789 328.166L169.984 315.918L171.334 315.511Z" fill="#2F2E41"/>
<path d="M140.391 305.529L139.93 306.316L140.259 306.369L140.391 305.529Z" fill="#2F2E41"/>
<path d="M142.027 306.835L147.138 309.584L147.94 310.015L146.124 312.992L149.91 321.608C150.098 322.034 150.145 322.509 150.045 322.964C149.946 323.419 149.704 323.83 149.356 324.136C149.008 324.443 148.572 324.63 148.111 324.669C147.65 324.708 147.188 324.598 146.794 324.355L138.574 319.278L138.953 315.457L136.604 318.061L133.508 316.15L140.783 306.168L142.027 306.835Z" fill="#2F2E41"/>
<path d="M177.774 240.063C177.231 240.231 176.657 240.276 176.094 240.197C175.531 240.117 174.992 239.914 174.516 239.602C174.039 239.29 173.636 238.876 173.336 238.39C173.035 237.905 172.844 237.358 172.775 236.79L159.27 233.843L164.403 228.787L176.441 232.36C177.397 232.308 178.338 232.61 179.087 233.21C179.836 233.81 180.341 234.666 180.505 235.615C180.67 236.565 180.482 237.542 179.979 238.362C179.476 239.182 178.691 239.787 177.774 240.063Z" fill="#FFB6B6"/>
<path d="M138.11 233.71L113.18 212.258C111.206 210.555 109.983 208.133 109.78 205.524C109.577 202.915 110.41 200.331 112.096 198.339C113.031 197.237 114.196 196.356 115.507 195.759C116.818 195.161 118.244 194.862 119.682 194.881C121.121 194.901 122.539 195.239 123.833 195.872C125.128 196.506 126.268 197.418 127.173 198.545L145.481 221.34L170.037 228.016L169.4 236.183L138.11 233.71Z" fill="#FF1F6D"/>
<path d="M109.037 211.686L108.509 231.157C101.242 243.518 100.416 249.521 102.427 252.721L136.152 241.301L136.655 240.09L134.369 231.821L137.198 222.845C137.696 221.907 144.458 216.144 138.119 205.213L125.367 187.915L120.756 187.542C119.072 191.895 116.503 194.055 113.468 195.059C106.605 201.393 107.614 202.424 109.037 211.686Z" fill="#FF1F6D"/>
<path d="M134.789 165.281C134.612 165.786 134.333 166.25 133.97 166.642C133.607 167.034 133.167 167.346 132.679 167.56C131.899 166.819 131.057 166.15 130.16 165.559C130.55 166.356 130.869 167.185 131.114 168.038C131.097 168.042 131.082 168.042 131.065 168.046C129.447 168.263 127.822 167.86 126.24 167.46L126.46 167.663C126.474 168.94 126.125 170.195 125.455 171.279C124.785 172.364 123.822 173.233 122.679 173.786C121.412 174.372 119.741 174.779 119.429 176.143C119.153 177.351 120.192 178.433 121.192 179.151C122.193 179.869 123.363 180.655 123.526 181.884C123.789 183.884 121.242 185.152 120.809 187.12C120.433 188.806 121.728 190.414 123.15 191.378C124.573 192.343 126.247 193.007 127.347 194.336C129.295 196.69 128.667 200.444 126.659 202.748C126.442 202.999 126.209 203.236 125.964 203.459C125.414 202.759 124.813 202.103 124.165 201.494C123.386 200.754 122.543 200.084 121.646 199.494C122.036 200.29 122.355 201.12 122.601 201.973C122.921 203.067 123.124 204.193 123.207 205.331C121.761 206.022 120.245 206.552 118.684 206.913C114.756 207.881 110.714 208.299 106.673 208.156C104.827 208.127 102.992 207.865 101.21 207.377C102.026 204.782 102.264 202.038 101.909 199.34C100.898 201.711 99.3346 203.802 97.3504 205.434C95.6867 204.116 94.4522 202.248 94.2465 200.144C93.9946 197.558 95.2859 195.086 96.719 192.925C98.1557 190.764 99.8088 188.656 100.44 186.138C101.363 182.466 99.9542 178.647 99.7733 174.865C99.6587 172.486 100.033 170.109 100.873 167.882C101.713 165.656 103.001 163.628 104.655 161.926C106.31 160.224 108.295 158.884 110.488 157.99C112.68 157.097 115.032 156.669 117.397 156.733C119.528 156.859 121.643 157.184 123.714 157.704C124.839 157.947 125.96 158.194 127.084 158.437C128.475 158.696 129.838 159.086 131.157 159.601C132.306 160.053 133.316 160.804 134.083 161.777C134.461 162.267 134.721 162.838 134.843 163.446C134.966 164.053 134.947 164.681 134.789 165.281Z" fill="#2F2E41"/>
<path d="M282.863 236.68H90.168V236.465C90.1706 234.135 91.0909 231.901 92.7271 230.253C94.3632 228.606 96.5815 227.679 98.8953 227.677H274.136C276.449 227.679 278.668 228.606 280.304 230.253C281.94 231.901 282.86 234.135 282.863 236.465V236.68Z" fill="#CCCCCC"/>
<path d="M297.116 327.04L294.146 328.266L269.953 235.324L272.924 234.097L297.116 327.04Z" fill="#CCCCCC"/>
<path d="M253.281 327.04L256.251 328.266L280.444 235.324L277.473 234.097L253.281 327.04Z" fill="#CCCCCC"/>
<path d="M119.393 327.04L116.423 328.266L92.2303 235.324L95.2006 234.097L119.393 327.04Z" fill="#CCCCCC"/>
<path d="M75.5586 327.04L78.5288 328.266L102.721 235.324L99.7509 234.097L75.5586 327.04Z" fill="#CCCCCC"/>
<path d="M208.498 220.875C208.556 220.7 208.576 220.515 208.557 220.332C208.537 220.148 208.479 219.972 208.386 219.813C208.293 219.654 208.168 219.517 208.018 219.412C207.868 219.306 207.698 219.234 207.518 219.2C207.451 219.186 207.383 219.177 207.315 219.175L199.114 218.961C198.93 218.96 198.748 218.997 198.579 219.07C198.41 219.143 198.258 219.252 198.134 219.388C198.019 219.363 197.902 219.351 197.784 219.351C197.529 219.344 197.275 219.388 197.036 219.481C196.798 219.573 196.579 219.712 196.394 219.889C196.209 220.066 196.06 220.278 195.956 220.513C195.853 220.749 195.796 221.002 195.79 221.259C195.783 221.516 195.827 221.772 195.919 222.012C196.011 222.252 196.149 222.472 196.325 222.658C196.501 222.845 196.712 222.994 196.946 223.098C197.179 223.203 197.431 223.259 197.687 223.266C197.98 223.271 198.272 223.211 198.539 223.089L199.294 231.213C199.366 231.48 199.523 231.716 199.74 231.886C199.957 232.056 200.223 232.151 200.498 232.156L205.829 232.295C206.102 232.3 206.369 232.217 206.593 232.06C206.816 231.902 206.985 231.677 207.073 231.417L208.498 220.875ZM197.704 222.705C197.336 222.696 196.986 222.539 196.733 222.271C196.479 222.002 196.341 221.643 196.35 221.273C196.358 220.902 196.513 220.55 196.779 220.294C197.045 220.037 197.401 219.898 197.769 219.905C197.795 219.905 197.818 219.918 197.844 219.918C197.785 220.142 197.787 220.378 197.848 220.602L198.385 222.538C198.177 222.655 197.942 222.713 197.704 222.705Z" fill="#FF1F6D"/>
<path d="M207.517 219.2C207.342 220.206 205.378 220.913 203.016 220.79C200.844 220.689 199.068 219.922 198.742 219.011C198.863 218.975 198.988 218.959 199.113 218.961L207.314 219.175C207.382 219.177 207.45 219.186 207.517 219.2Z" fill="white"/>
<path d="M181.186 217.66C181.244 217.485 181.264 217.3 181.244 217.117C181.225 216.934 181.167 216.757 181.074 216.598C180.981 216.439 180.855 216.303 180.706 216.197C180.556 216.091 180.385 216.019 180.205 215.985C180.139 215.971 180.071 215.962 180.003 215.96L171.802 215.747C171.618 215.745 171.436 215.782 171.267 215.855C171.098 215.929 170.946 216.037 170.821 216.173C170.706 216.148 170.589 216.136 170.472 216.136C169.957 216.124 169.457 216.318 169.084 216.675C168.711 217.033 168.494 217.526 168.481 218.044C168.468 218.563 168.66 219.066 169.015 219.442C169.37 219.818 169.859 220.037 170.374 220.051C170.668 220.057 170.959 219.996 171.227 219.874L171.981 227.998C172.054 228.265 172.21 228.501 172.427 228.671C172.644 228.841 172.91 228.936 173.185 228.942L178.517 229.08C178.789 229.085 179.057 229.002 179.28 228.845C179.504 228.687 179.672 228.462 179.761 228.202L181.186 217.66ZM170.391 219.49C170.023 219.481 169.674 219.324 169.42 219.056C169.166 218.787 169.029 218.428 169.037 218.058C169.046 217.687 169.2 217.335 169.466 217.079C169.732 216.822 170.088 216.683 170.456 216.69C170.482 216.69 170.505 216.703 170.531 216.703C170.473 216.927 170.474 217.163 170.535 217.387L171.072 219.323C170.865 219.44 170.629 219.498 170.391 219.49Z" fill="#FF1F6D"/>
<path d="M180.204 215.985C180.029 216.991 178.065 217.698 175.703 217.575C173.531 217.475 171.755 216.707 171.43 215.796C171.55 215.761 171.675 215.744 171.801 215.747L180.002 215.96C180.07 215.962 180.138 215.971 180.204 215.985Z" fill="white"/>
<path d="M177.164 231.355C176.641 231.579 176.076 231.685 175.507 231.665C174.939 231.645 174.382 231.5 173.876 231.241C173.369 230.981 172.926 230.612 172.576 230.161C172.226 229.709 171.979 229.186 171.852 228.629L158.113 227.126L162.691 221.555L175.035 223.835C175.98 223.682 176.948 223.883 177.755 224.401C178.563 224.918 179.154 225.716 179.416 226.643C179.679 227.57 179.595 228.561 179.179 229.43C178.764 230.298 178.047 230.983 177.164 231.355Z" fill="#FFB6B6"/>
<path d="M137.056 229.232L110.026 210.534C107.885 209.05 106.416 206.771 105.942 204.198C105.468 201.624 106.027 198.966 107.496 196.807C108.311 195.613 109.377 194.614 110.619 193.881C111.86 193.148 113.247 192.699 114.68 192.567C116.113 192.434 117.557 192.621 118.911 193.113C120.264 193.606 121.493 194.393 122.511 195.418L143.095 216.151L168.211 220.193L168.43 228.382L137.056 229.232Z" fill="#FF1F6D"/>
<path d="M376.49 328.868L0.507396 329C0.372691 329 0.24364 328.946 0.148527 328.849C0.0534142 328.753 0 328.623 0 328.488C0 328.352 0.0534142 328.222 0.148527 328.126C0.24364 328.03 0.372691 327.976 0.507396 327.975L376.49 327.843C376.625 327.843 376.754 327.897 376.849 327.993C376.945 328.089 376.999 328.22 376.999 328.355C376.999 328.491 376.945 328.622 376.849 328.718C376.754 328.814 376.625 328.868 376.49 328.868Z" fill="#CACACA"/>
<path d="M197.028 57.8904C205.441 57.8904 212.26 51.0236 212.26 42.5529C212.26 34.0822 205.441 27.2153 197.028 27.2153C188.616 27.2153 181.797 34.0822 181.797 42.5529C181.797 51.0236 188.616 57.8904 197.028 57.8904Z" fill="#FD6584"/>
<path d="M231.12 35.2912C230.239 32.3197 227.75 30.3799 224.743 29.9543C224.71 29.9496 224.678 29.9558 224.645 29.9537C224.603 29.9406 224.559 29.9305 224.515 29.9235C220.255 29.4007 215.945 30.3455 212.286 32.6041C208.76 34.8204 204.653 35.8228 200.499 35.9856C200.475 35.9866 200.451 35.9877 200.426 35.9889C198.882 36.0925 197.408 36.6726 196.203 37.6502C194.999 38.6278 194.123 39.9555 193.694 41.4524C193.649 41.6357 193.662 41.8288 193.733 42.0037C193.804 42.1787 193.928 42.3264 194.088 42.4255C194.548 42.8181 195.093 43.0967 195.679 43.2389C196.944 43.5088 198.214 43.756 199.488 43.9805C201.974 44.4186 204.473 44.7728 206.984 45.043C212.084 45.5933 217.214 45.7886 222.34 45.6275C224.047 45.5739 225.694 45.5169 227.258 44.7582C228.396 44.1922 229.368 43.3379 230.079 42.2792C230.749 41.2617 231.189 40.1087 231.369 38.9014C231.549 37.6942 231.464 36.4618 231.12 35.2912Z" fill="#FFD6E4"/>
<path d="M289.249 91.3386C289.96 92.3973 290.932 93.2516 292.07 93.8175C293.634 94.5762 295.281 94.6333 296.988 94.6868C302.114 94.8479 307.244 94.6526 312.343 94.1024C314.853 93.8314 317.352 93.4772 319.84 93.0399C321.114 92.8154 322.384 92.5682 323.649 92.2982C324.235 92.156 324.78 91.8774 325.24 91.4848C325.4 91.3857 325.524 91.238 325.595 91.0631C325.665 90.8881 325.679 90.695 325.633 90.5118C325.205 89.0148 324.329 87.6872 323.125 86.7095C321.92 85.7319 320.446 85.1518 318.902 85.0482C318.877 85.047 318.853 85.0459 318.828 85.045C314.675 84.8821 310.568 83.8797 307.042 81.6634C303.383 79.4048 299.073 78.46 294.813 78.9828C294.769 78.9898 294.725 78.9999 294.683 79.013C294.65 79.0152 294.618 79.0089 294.585 79.0136C291.578 79.4392 289.089 81.379 288.208 84.3505C287.864 85.5212 287.779 86.7535 287.959 87.9608C288.139 89.1681 288.579 90.321 289.249 91.3386Z" fill="#FFD6E4"/>
<path d="M199.46 55.7411C198.579 52.7697 196.09 50.8298 193.083 50.4042C193.049 50.3996 193.018 50.4058 192.985 50.4036C192.943 50.3905 192.899 50.3804 192.855 50.3735C188.595 49.8507 184.284 50.7955 180.626 53.0541C177.1 55.2703 172.993 56.2729 168.84 56.4356C168.815 56.4365 168.79 56.4376 168.766 56.4389C167.222 56.5425 165.748 57.1226 164.543 58.1002C163.339 59.0778 162.463 60.4055 162.034 61.9024C161.989 62.0857 162.002 62.2787 162.073 62.4537C162.144 62.6286 162.268 62.7764 162.428 62.8755C162.888 63.2681 163.433 63.5466 164.019 63.6889C165.284 63.9587 166.553 64.2059 167.827 64.4305C170.313 64.8685 172.812 65.2227 175.324 65.493C180.423 66.0433 185.554 66.2385 190.68 66.0775C192.387 66.0239 194.033 65.9668 195.598 65.2081C196.736 64.6421 197.708 63.7879 198.419 62.7292C199.089 61.7116 199.529 60.5587 199.709 59.3514C199.889 58.1441 199.804 56.9118 199.46 55.7411Z" fill="#FFD6E4"/>
</g>
<defs>
<clipPath id="clip0_2639_15800">
<rect width="377" height="329" fill="white"/>
</clipPath>
</defs>
</svg>
